<svg width="129" height="41" viewBox="0 0 129 41" fill="none" xmlns="http://www.w3.org/2000/svg">
<g clip-path="url(#clip0_129_1832)">
<path fill-rule="evenodd" clip-rule="evenodd" d="M15.4922 7.7185L3.09173 12.7003C2.40215 12.9773 2.4093 13.9285 3.1032 14.1955L15.5553 18.9898C16.6494 19.4111 17.8678 19.4111 18.9619 18.9898L31.4142 14.1953C32.1079 13.9285 32.1154 12.9775 31.4255 12.7004L19.0254 7.71832C17.8941 7.26382 16.6233 7.26382 15.492 7.71832L15.4922 7.7185ZM51.9359 22.9288L49.7106 17.1047C49.6198 16.8665 49.2727 16.8665 49.1817 17.1047L46.9568 22.9292C46.941 22.9706 46.9357 23.0151 46.9415 23.0589C46.9472 23.1027 46.9638 23.1445 46.9898 23.1807C47.0157 23.2169 47.0504 23.2465 47.0907 23.267C47.131 23.2874 47.1758 23.2981 47.2213 23.2981H51.6714C51.7169 23.298 51.7617 23.2874 51.802 23.2669C51.8423 23.2464 51.8769 23.2168 51.9029 23.1806C51.9288 23.1443 51.9454 23.1025 51.9511 23.0587C51.9568 23.0149 51.9515 22.9704 51.9357 22.929L51.9359 22.9288ZM52.9635 26.2024H45.929C45.8714 26.2025 45.8152 26.2196 45.768 26.2515C45.7207 26.2834 45.6847 26.3286 45.6646 26.381L44.2796 30.0049C44.2596 30.0573 44.2236 30.1024 44.1763 30.1344C44.1291 30.1663 44.0729 30.1834 44.0153 30.1834H40.9662C40.9201 30.1834 40.8747 30.1724 40.834 30.1514C40.7933 30.1304 40.7585 30.1001 40.7326 30.063C40.7068 30.0259 40.6907 29.9833 40.6858 29.9388C40.6809 29.8943 40.6873 29.8493 40.7045 29.8077L47.7245 12.8286C47.7456 12.7779 47.7817 12.7344 47.8284 12.7039C47.8751 12.6733 47.9301 12.657 47.9864 12.657H50.9061C51.0211 12.657 51.1247 12.7249 51.1677 12.8286L58.1876 29.8076C58.2049 29.8491 58.2113 29.8942 58.2065 29.9387C58.2016 29.9832 58.1855 30.026 58.1597 30.0631C58.1339 30.1002 58.099 30.1306 58.0583 30.1516C58.0175 30.1726 57.9721 30.1836 57.9259 30.1836H54.8773C54.8198 30.1835 54.7636 30.1664 54.7163 30.1345C54.6691 30.1025 54.633 30.0573 54.613 30.0049L53.2278 26.381C53.2078 26.3286 53.1718 26.2834 53.1245 26.2515C53.0773 26.2196 53.0211 26.2025 52.9635 26.2024ZM59.6162 18.6158H62.2242C62.299 18.6158 62.3707 18.6447 62.4236 18.696C62.4765 18.7474 62.5062 18.817 62.5062 18.8896V29.9096C62.5062 29.9822 62.4765 30.0519 62.4236 30.1032C62.3707 30.1545 62.299 30.1834 62.2242 30.1834H59.6162C59.5415 30.1834 59.4697 30.1545 59.4168 30.1032C59.364 30.0519 59.3342 29.9822 59.3342 29.9096V18.8894C59.3342 18.8168 59.364 18.7472 59.4168 18.6958C59.4697 18.6445 59.5415 18.6157 59.6162 18.6157V18.6158ZM72.0174 21.2964C72.0174 21.3691 71.9877 21.4387 71.9348 21.49C71.8819 21.5414 71.8102 21.5702 71.7354 21.5702H71.6565C70.367 21.5702 69.4212 21.8707 68.8196 22.4716C68.2176 23.0724 67.9172 24.0658 67.9172 25.4512V29.9096C67.9172 29.9822 67.8875 30.0519 67.8346 30.1032C67.7817 30.1545 67.7099 30.1834 67.6352 30.1834H65.0528C64.978 30.1834 64.9063 30.1545 64.8534 30.1032C64.8005 30.0519 64.7708 29.9822 64.7708 29.9096V18.8894C64.7708 18.8168 64.8005 18.7472 64.8534 18.6958C64.9063 18.6445 64.978 18.6157 65.0528 18.6157H67.6092C67.684 18.6157 67.7557 18.6445 67.8086 18.6958C67.8615 18.7472 67.8912 18.8168 67.8912 18.8894V21.0692H67.9429C68.2524 20.1679 68.7423 19.4755 69.4131 18.9911C70.0833 18.5072 70.9086 18.265 71.8885 18.265H72.0174V21.2963V21.2964ZM79.1482 21.1946C79.0734 21.1946 79.0017 21.2234 78.9488 21.2748C78.896 21.3261 78.8662 21.3958 78.8662 21.4684V26.052C78.8662 26.5195 78.9602 26.8533 79.1497 27.0536C79.3387 27.2538 79.6654 27.354 80.1296 27.354H80.3892C80.464 27.354 80.5357 27.3829 80.5886 27.4342C80.6415 27.4856 80.6712 27.5552 80.6712 27.6278V29.9344C80.6712 30.007 80.6415 30.0767 80.5886 30.128C80.5357 30.1794 80.464 30.2082 80.3892 30.2082H79.2785C78.1266 30.2082 77.2414 29.9204 76.6225 29.3445C76.0034 28.7686 75.6939 27.9135 75.6939 26.7781V21.4684C75.6939 21.3958 75.6642 21.3261 75.6113 21.2748C75.5585 21.2234 75.4867 21.1946 75.4119 21.1946H73.784C73.7093 21.1946 73.6375 21.1658 73.5846 21.1144C73.5318 21.0631 73.5021 20.9934 73.5021 20.9208V18.8894C73.5021 18.8168 73.5318 18.7472 73.5846 18.6958C73.6375 18.6445 73.7093 18.6157 73.784 18.6157H75.4121C75.4869 18.6157 75.5586 18.5868 75.6115 18.5355C75.6644 18.4841 75.6941 18.4145 75.6941 18.3419V14.2574C75.6941 14.1848 75.7238 14.1152 75.7767 14.0638C75.8296 14.0125 75.9013 13.9836 75.9761 13.9836H78.5841C78.6588 13.9836 78.7306 14.0125 78.7834 14.0638C78.8363 14.1152 78.866 14.1848 78.866 14.2574V18.3419C78.866 18.4145 78.8958 18.4841 78.9486 18.5355C79.0015 18.5868 79.0733 18.6157 79.148 18.6157H81.0339C81.1087 18.6157 81.1804 18.6445 81.2333 18.6958C81.2862 18.7472 81.3159 18.8168 81.3159 18.8894V20.921C81.3159 20.9936 81.2862 21.0632 81.2333 21.1146C81.1804 21.1659 81.1087 21.1948 81.0339 21.1948H79.1482V21.1946ZM91.0901 26.7531C91.6833 26.1523 91.9797 25.3677 91.9797 24.3994C91.9797 23.4317 91.6833 22.6468 91.0901 22.0459C90.497 21.445 89.7189 21.1446 88.7561 21.1446C87.7932 21.1446 87.0156 21.445 86.4223 22.0459C85.8293 22.6468 85.5327 23.4317 85.5327 24.3994C85.5327 25.3677 85.8293 26.1523 86.4223 26.7531C87.0156 27.354 87.7932 27.6545 88.7561 27.6545C89.7189 27.6545 90.497 27.354 91.0901 26.7531ZM85.0685 29.8328C84.1917 29.3489 83.4995 28.6434 82.9926 27.7171C82.4852 26.7907 82.2318 25.685 82.2318 24.3994C82.2318 23.1144 82.4852 22.0083 82.9926 21.082C83.4995 20.1556 84.1917 19.4507 85.0685 18.9663C85.9453 18.4822 86.9079 18.2402 87.9567 18.2402C88.8851 18.2402 89.6801 18.4154 90.3425 18.7659C91.0038 19.1163 91.5325 19.609 91.9282 20.2433H91.9797V18.8894C91.9797 18.8168 92.0095 18.7472 92.0623 18.6958C92.1152 18.6445 92.187 18.6157 92.2617 18.6157H94.8439C94.9187 18.6157 94.9904 18.6445 95.0433 18.6958C95.0962 18.7472 95.1259 18.8168 95.1259 18.8894V29.9094C95.1259 29.982 95.0962 30.0517 95.0433 30.103C94.9904 30.1544 94.9187 30.1832 94.8439 30.1832H92.2617C92.187 30.1832 92.1152 30.1544 92.0623 30.103C92.0095 30.0517 91.9797 29.982 91.9797 29.9094V28.5558H91.9282C91.5325 29.1904 91.0038 29.6825 90.3423 30.033C89.6801 30.3834 88.8853 30.5587 87.9567 30.5587C86.9079 30.5587 85.9453 30.3166 85.0685 29.8328ZM105.865 26.7531C106.458 26.1523 106.755 25.3677 106.755 24.3994C106.755 23.4317 106.458 22.6468 105.865 22.0459C105.272 21.445 104.494 21.1446 103.531 21.1446C102.568 21.1446 101.79 21.445 101.197 22.0459C100.604 22.6468 100.308 23.4317 100.308 24.3994C100.308 25.3677 100.604 26.1523 101.197 26.7531C101.79 27.354 102.568 27.6545 103.531 27.6545C104.494 27.6545 105.272 27.354 105.865 26.7531ZM101.945 30.033C101.283 29.6825 100.754 29.1904 100.359 28.5558H100.308V29.9094C100.308 29.982 100.278 30.0517 100.225 30.103C100.172 30.1544 100.1 30.1832 100.026 30.1832H97.4176C97.3428 30.1832 97.2711 30.1544 97.2182 30.103C97.1653 30.0517 97.1356 29.982 97.1356 29.9094V12.9303C97.1356 12.8576 97.1653 12.788 97.2182 12.7367C97.2711 12.6853 97.3428 12.6565 97.4176 12.6565H100.026C100.1 12.6565 100.172 12.6853 100.225 12.7367C100.278 12.788 100.308 12.8576 100.308 12.9303V20.2431H100.359C100.754 19.6088 101.283 19.1163 101.945 18.7659C102.607 18.4152 103.402 18.24 104.331 18.24C105.379 18.24 106.342 18.482 107.219 18.9661C108.096 19.4505 108.788 20.1555 109.295 21.0816C109.802 22.0085 110.056 23.1146 110.056 24.3996C110.056 25.6852 109.802 26.7907 109.295 27.7172C108.788 28.6436 108.096 29.3491 107.219 29.8328C106.342 30.3168 105.379 30.559 104.331 30.559C103.402 30.559 102.607 30.3838 101.945 30.0332L101.945 30.033ZM114.45 30.1834H111.842C111.767 30.1834 111.695 30.1545 111.642 30.1032C111.59 30.0519 111.56 29.9822 111.56 29.9096V12.9308C111.56 12.8582 111.59 12.7886 111.642 12.7372C111.695 12.6859 111.767 12.657 111.842 12.657H114.45C114.525 12.657 114.596 12.6859 114.649 12.7372C114.702 12.7886 114.732 12.8582 114.732 12.9308V29.9096C114.732 29.9822 114.702 30.0519 114.649 30.1032C114.596 30.1545 114.525 30.1834 114.45 30.1834ZM120.601 21.295C120.169 21.6224 119.877 22.0952 119.726 22.7136C119.684 22.8841 119.821 23.0476 120.002 23.0476H124.965C125.137 23.0476 125.273 22.898 125.245 22.7329C125.146 22.1479 124.887 21.6816 124.47 21.3326C123.98 20.9237 123.339 20.7193 122.548 20.7193C121.757 20.7193 121.108 20.9111 120.601 21.295ZM126.958 19.8552C127.973 20.9321 128.48 22.4553 128.48 24.4246V24.7517C128.48 24.8243 128.45 24.894 128.397 24.9453C128.344 24.9967 128.273 25.0255 128.198 25.0255H119.906C119.865 25.0256 119.824 25.0344 119.787 25.0514C119.749 25.0684 119.716 25.093 119.69 25.1237C119.663 25.1544 119.644 25.1904 119.633 25.2291C119.622 25.2678 119.62 25.3083 119.627 25.3478C119.76 26.0794 120.093 26.6606 120.627 27.0912C121.237 27.584 122.007 27.8299 122.935 27.8299C124.134 27.8299 125.243 27.3757 126.263 26.4673C126.388 26.3563 126.585 26.3799 126.682 26.5148L127.95 28.2816C127.99 28.3366 128.007 28.4038 127.999 28.4705C127.991 28.5372 127.958 28.5987 127.907 28.6434C127.285 29.1723 126.593 29.6186 125.849 29.9706C125.024 30.3626 124.053 30.559 122.935 30.559C121.646 30.559 120.52 30.3042 119.557 29.7953C118.594 29.2864 117.846 28.5687 117.314 27.642C116.78 26.7157 116.514 25.6434 116.514 24.4246C116.514 23.2064 116.772 22.1299 117.288 21.1948C117.803 20.2602 118.525 19.5341 119.454 19.0165C120.382 18.4994 121.465 18.2404 122.703 18.2404C124.525 18.2404 125.944 18.7788 126.958 19.8552ZM62.8468 14.5418C62.8468 15.5745 61.9845 16.4118 60.9206 16.4118C59.8565 16.4118 58.9942 15.5745 58.9942 14.5416C58.9942 13.5087 59.8567 12.6714 60.9206 12.6714C61.9845 12.6714 62.8468 13.5087 62.8468 14.5416V14.5418ZM18.3635 33.5846V21.6079C18.3635 21.4463 18.4135 21.2884 18.507 21.1547C18.6005 21.021 18.7333 20.9177 18.888 20.8581L32.7635 15.629C33.3089 15.4191 33.9005 15.8091 33.9005 16.3788V28.3556C33.9005 28.5172 33.8505 28.6751 33.757 28.8088C33.6635 28.9425 33.5307 29.0459 33.376 29.1054L19.5005 34.3345C18.9551 34.5444 18.3635 34.1541 18.3635 33.5846ZM11.0053 24.1561L11.0053 24.1561L10.5872 24.3524L1.89447 28.3963C1.34363 28.6544 0.640137 28.2645 0.640137 27.6702V16.429C0.640137 16.214 0.753688 16.0283 0.905968 15.8887C0.906006 15.8887 0.906043 15.8886 0.906081 15.8886L0.905991 15.8885C0.960656 15.8357 1.02175 15.7897 1.08787 15.7513C1.09422 15.7477 1.10061 15.744 1.10705 15.7405C1.1102 15.7388 1.11336 15.7371 1.11653 15.7354C1.19436 15.69 1.28467 15.6571 1.38044 15.6388C1.51301 15.6134 1.65605 15.6161 1.79092 15.6523C1.81844 15.6597 1.84563 15.6685 1.87231 15.6788L15.0541 20.7498C15.7241 21.0079 15.7768 21.9194 15.1233 22.2259C15.1233 22.2259 15.1232 22.2259 15.1232 22.2259V22.2257L11.0053 24.1561Z" fill="black" fill-opacity="0.7"/>
</g>
<defs>
<clipPath id="clip0_129_1832">
<rect width="128" height="40" fill="white" transform="translate(0.5 0.51709)"/>
</clipPath>
</defs>
</svg>
