<svg width="20" height="21" viewBox="0 0 20 21" fill="none" xmlns="http://www.w3.org/2000/svg">
<path d="M12.0248 16.2005C11.8664 16.2005 11.7081 16.1422 11.5831 16.0172C11.3414 15.7755 11.3414 15.3755 11.5831 15.1339L16.1998 10.5172L11.5831 5.90052C11.3414 5.65885 11.3414 5.25885 11.5831 5.01719C11.8248 4.77552 12.2248 4.77552 12.4664 5.01719L17.5248 10.0755C17.7664 10.3172 17.7664 10.7172 17.5248 10.9589L12.4664 16.0172C12.3414 16.1422 12.1831 16.2005 12.0248 16.2005Z" fill="#0286F1"/>
<path d="M16.9415 11.1421H2.9165C2.57484 11.1421 2.2915 10.8588 2.2915 10.5171C2.2915 10.1754 2.57484 9.89209 2.9165 9.89209H16.9415C17.2832 9.89209 17.5665 10.1754 17.5665 10.5171C17.5665 10.8588 17.2832 11.1421 16.9415 11.1421Z" fill="#0286F1"/>
</svg>
