<svg width="33" height="32" viewBox="0 0 33 32" fill="none" xmlns="http://www.w3.org/2000/svg">
<path d="M25.5932 12.7599C25.5932 13.0133 25.4999 13.2666 25.2999 13.4666C24.9132 13.8533 24.2732 13.8533 23.8866 13.4666L16.4999 6.07992L9.11325 13.4666C8.72658 13.8533 8.08658 13.8533 7.69991 13.4666C7.31325 13.0799 7.31325 12.4399 7.69991 12.0533L15.7932 3.95992C16.1799 3.57326 16.8199 3.57326 17.2066 3.95992L25.2999 12.0533C25.4999 12.2533 25.5932 12.5066 25.5932 12.7599Z" fill="white"/>
<path d="M17.5 4.89325L17.5 27.3333C17.5 27.8799 17.0467 28.3333 16.5 28.3333C15.9533 28.3333 15.5 27.8799 15.5 27.3333L15.5 4.89325C15.5 4.34658 15.9533 3.89325 16.5 3.89325C17.0467 3.89325 17.5 4.34658 17.5 4.89325Z" fill="white"/>
</svg>
