<svg width="24" height="24" viewBox="0 0 24 24" fill="none" xmlns="http://www.w3.org/2000/svg">
<path d="M16.3605 14.0694C16.2709 14.159 16.1484 14.2156 16.0069 14.2156C15.7335 14.2156 15.5073 13.9893 15.5073 13.7159L15.5073 8.49273L10.2841 8.49273C10.0107 8.49273 9.78441 8.26646 9.78441 7.99304C9.78441 7.71963 10.0107 7.49335 10.2841 7.49335L16.0069 7.49335C16.2804 7.49335 16.5066 7.71963 16.5066 7.99304L16.5066 13.7159C16.5066 13.8573 16.4501 13.9799 16.3605 14.0694Z" fill="white"/>
<path d="M16.2803 8.42677L8.34655 16.3605C8.15327 16.5538 7.83272 16.5538 7.63944 16.3605C7.44617 16.1672 7.44617 15.8467 7.63944 15.6534L15.5732 7.71967C15.7665 7.52639 16.087 7.52639 16.2803 7.71967C16.4736 7.91294 16.4736 8.2335 16.2803 8.42677Z" fill="white"/>
</svg>
