<svg width="20" height="20" viewBox="0 0 20 20" fill="none" xmlns="http://www.w3.org/2000/svg">
<path d="M12.0248 15.6834C11.8664 15.6834 11.7081 15.6251 11.5831 15.5001C11.3414 15.2584 11.3414 14.8584 11.5831 14.6168L16.1998 10.0001L11.5831 5.38343C11.3414 5.14176 11.3414 4.74176 11.5831 4.5001C11.8248 4.25843 12.2248 4.25843 12.4664 4.5001L17.5248 9.55843C17.7664 9.8001 17.7664 10.2001 17.5248 10.4418L12.4664 15.5001C12.3414 15.6251 12.1831 15.6834 12.0248 15.6834Z" fill="white"/>
<path d="M16.9415 10.625H2.9165C2.57484 10.625 2.2915 10.3417 2.2915 10C2.2915 9.65833 2.57484 9.375 2.9165 9.375H16.9415C17.2832 9.375 17.5665 9.65833 17.5665 10C17.5665 10.3417 17.2832 10.625 16.9415 10.625Z" fill="white"/>
</svg>
