<svg width="96" height="23" viewBox="0 0 96 23" fill="none" xmlns="http://www.w3.org/2000/svg">
<g clip-path="url(#clip0_1_2334)">
<path d="M47.0505 6.21963C45.1188 6.21963 43.2086 7.04828 41.7557 8.68407V0.634277H38.877V14.1887C38.877 18.5903 42.4445 22.1578 46.846 22.1578C51.2476 22.1578 54.8151 18.5903 54.8151 14.1887C54.8151 9.78715 51.4521 6.21963 47.0505 6.21963ZM46.8407 19.0853C44.1341 19.0853 41.9441 16.8899 41.9441 14.1887C41.9441 11.4875 44.1395 9.29211 46.8407 9.29211C49.5472 9.29211 51.7373 11.4875 51.7373 14.1887C51.7373 16.8899 49.5472 19.0853 46.8407 19.0853Z" fill="#707A92"/>
<path d="M64.8989 6.21963C62.9672 6.21963 61.057 7.04828 59.6041 8.68407V0.634277H56.7253V14.1887C56.7253 18.5903 60.2929 22.1578 64.6944 22.1578C69.096 22.1578 72.6635 18.5903 72.6635 14.1887C72.6635 9.78715 69.2951 6.21963 64.8989 6.21963ZM64.689 19.0853C61.9825 19.0853 59.7924 16.8899 59.7924 14.1887C59.7924 11.4875 61.9878 9.29211 64.689 9.29211C67.3956 9.29211 69.5856 11.4875 69.5856 14.1887C69.5856 16.8899 67.3956 19.0853 64.689 19.0853Z" fill="#707A92"/>
<path d="M22.6699 15.5827V6.65039H25.7585V15.5557C25.7585 17.8319 27.0769 19.2901 29.2992 19.2901C31.5484 19.2901 32.8398 17.8857 32.8398 15.5557V6.65039H35.9553V15.5827C35.9553 19.7098 33.4532 22.1527 29.2992 22.1527C25.2527 22.1581 22.6699 19.6291 22.6699 15.5827Z" fill="#707A92"/>
<path d="M78.2327 21.7919H75.144V0.634277H78.2327V21.7919Z" fill="#707A92"/>
<path d="M95.7207 15.4155H83.8989C84.3509 17.7724 86.0028 19.3759 88.9246 19.3759C90.6357 19.3759 92.7181 18.7302 94.0634 17.7455L95.3548 20.0216C93.8105 21.1731 91.3675 22.1255 88.8116 22.1255C83.1402 22.1255 80.6973 18.1652 80.6973 14.1779C80.6973 11.9018 81.3968 10.0239 82.8335 8.53339C84.2648 7.04288 86.1481 6.28418 88.4242 6.28418C90.5873 6.28418 92.3845 6.95679 93.762 8.33429C95.1395 9.7118 95.8391 11.5628 95.8391 13.925C95.8283 14.3501 95.8014 14.8559 95.7207 15.4155ZM83.8935 12.8865H92.7128C92.4599 10.4974 90.6896 8.9531 88.4134 8.9531C86.0835 8.9531 84.3455 10.5297 83.8935 12.8865Z" fill="#707A92"/>
<path d="M12.8603 6.21963C10.9286 6.21963 9.01839 7.04828 7.56555 8.68407V0.634277H4.6814V14.1887C4.6814 18.5903 8.24892 22.1578 12.6505 22.1578C17.052 22.1578 20.6196 18.5903 20.6196 14.1887C20.6196 9.78715 17.2565 6.21963 12.8603 6.21963ZM12.6505 19.0853C9.9439 19.0853 7.75388 16.8899 7.75388 14.1887C7.75388 11.4875 9.94928 9.29211 12.6505 9.29211C15.3571 9.29211 17.5471 11.4875 17.5471 14.1887C17.5471 16.8899 15.3571 19.0853 12.6505 19.0853Z" fill="#707A92"/>
<path d="M2.5883 22.1527C3.67597 22.1527 4.5577 21.271 4.5577 20.1833C4.5577 19.0956 3.67597 18.2139 2.5883 18.2139C1.50063 18.2139 0.618896 19.0956 0.618896 20.1833C0.618896 21.271 1.50063 22.1527 2.5883 22.1527Z" fill="#707A92"/>
</g>
<defs>
<clipPath id="clip0_1_2334">
<rect width="95.2954" height="21.5773" fill="white" transform="translate(0.586426 0.591309)"/>
</clipPath>
</defs>
</svg>
