<svg width="74" height="22" viewBox="0 0 74 22" fill="none" xmlns="http://www.w3.org/2000/svg">
<g clip-path="url(#clip0_1_2336)">
<path d="M10.8123 21.7114C13.9506 21.7114 16.0335 20.7117 17.8664 19.1009C18.1719 18.8232 18.4218 18.4066 18.4218 17.8789C18.4218 17.018 17.672 16.2959 16.8111 16.2959C16.3945 16.2959 16.0335 16.4626 15.7835 16.6847C14.3671 17.8789 12.9786 18.5454 10.9234 18.5454C7.20199 18.5454 4.50811 15.4628 4.50811 11.658V11.6025C4.50811 7.79771 7.22976 4.7428 10.9234 4.7428C12.7841 4.7428 14.2283 5.40933 15.5613 6.49243C15.7835 6.65906 16.1168 6.8257 16.5889 6.8257C17.5331 6.8257 18.283 6.10363 18.283 5.15938C18.283 4.5484 17.9775 4.07627 17.6165 3.79856C15.9224 2.49328 13.9506 1.60457 10.9512 1.60457C5.06355 1.60457 0.925537 6.1314 0.925537 11.658V11.7136C0.925537 17.2957 5.14686 21.7114 10.8123 21.7114ZM22.9221 4.60394C24.0052 4.60394 24.8384 3.93742 24.8384 2.93763V2.771C24.8384 1.77121 24.0052 1.13245 22.9221 1.13245C21.839 1.13245 21.0058 1.77121 21.0058 2.771V2.93763C21.0058 3.93742 21.839 4.60394 22.9221 4.60394ZM22.9221 21.517C23.8664 21.517 24.6162 20.795 24.6162 19.8507V8.24206C24.6162 7.29782 23.8664 6.54798 22.9221 6.54798C21.9779 6.54798 21.2558 7.29782 21.2558 8.24206V19.8507C21.2558 20.795 22.0056 21.517 22.9221 21.517ZM29.8385 21.517C30.7828 21.517 31.5326 20.7672 31.5326 19.8507V15.5183C31.5326 12.0468 33.1711 10.2139 35.5595 9.79729C36.3094 9.65843 36.8926 9.07522 36.8926 8.18652C36.8926 7.2145 36.2816 6.52021 35.2263 6.52021C33.7544 6.52021 32.3102 7.9088 31.5326 9.74175V8.24206C31.5326 7.29782 30.7828 6.54798 29.8385 6.54798C28.8943 6.54798 28.1722 7.29782 28.1722 8.24206V19.8507C28.1722 20.795 28.922 21.517 29.8385 21.517ZM45.0865 21.7114C47.5304 21.7114 49.1134 20.8783 50.4187 19.6286C50.7242 19.3786 50.8908 19.0176 50.8908 18.5732C50.8908 17.7678 50.2521 17.1013 49.4467 17.1013C49.0579 17.1013 48.7246 17.2957 48.5302 17.4623C47.6137 18.24 46.5862 18.7676 45.2531 18.7676C42.6703 18.7676 40.8652 16.6847 40.8652 14.0742V14.0186C40.8652 11.4636 42.6703 9.35294 45.1143 9.35294C46.4473 9.35294 47.3916 9.88061 48.2525 10.6027C48.4747 10.7693 48.8357 10.9359 49.2523 10.9359C50.1132 10.9359 50.8075 10.2694 50.8075 9.40849C50.8075 8.85305 50.502 8.43647 50.2798 8.24206C49.0301 7.15896 47.4471 6.40912 45.142 6.40912C40.7263 6.40912 37.5048 9.90838 37.5048 14.0742V14.1297C37.5048 18.2955 40.7263 21.7114 45.0865 21.7114ZM55.1967 21.517C56.1409 21.517 56.8908 20.795 56.8908 19.8507V2.63214C56.8908 1.71566 56.1409 0.96582 55.1967 0.96582C54.2524 0.96582 53.5304 1.71566 53.5304 2.63214V19.8507C53.5304 20.795 54.2802 21.517 55.1967 21.517ZM67.1676 21.7114C69.4449 21.7114 71.1112 20.9616 72.4442 19.7674C72.6942 19.5175 72.8886 19.1564 72.8886 18.7399C72.8886 17.9622 72.3054 17.379 71.5555 17.379C71.1667 17.379 70.9446 17.4901 70.6946 17.6845C69.7504 18.4621 68.6395 18.962 67.2231 18.962C65.0569 18.962 63.3628 17.629 63.0018 15.2406H72.1943C73.0552 15.2406 73.7773 14.5741 73.7773 13.6298C73.7773 10.2416 71.4722 6.40912 66.8065 6.40912C62.613 6.40912 59.6414 9.85283 59.6414 14.0464V14.1019C59.6414 18.6288 62.9185 21.7114 67.1676 21.7114ZM70.5002 13.0188H62.974C63.2795 10.7415 64.7237 9.15854 66.7788 9.15854C69.0005 9.15854 70.278 10.8526 70.5002 13.0188Z" fill="#707A92"/>
</g>
<defs>
<clipPath id="clip0_1_2336">
<rect width="73.3179" height="21.1067" fill="white" transform="translate(0.679199 0.82666)"/>
</clipPath>
</defs>
</svg>
