<svg width="66" height="23" viewBox="0 0 66 23" fill="none" xmlns="http://www.w3.org/2000/svg">
<g clip-path="url(#clip0_1_2335)">
<path d="M0.675293 13.8568C0.675293 19.2377 4.39992 22.5822 9.11271 22.5822C10.769 22.5822 12.4253 22.1822 13.6335 21.278V17.0733C12.5386 18.0508 11.1205 18.5882 9.6528 18.5816C7.20439 18.5816 5.25206 16.8293 5.25206 13.8688C5.25206 10.9083 7.19639 9.18798 9.6528 9.18798C11.1281 9.15978 12.5588 9.69483 13.6535 10.6842V6.47153C12.4533 5.54737 10.789 5.19531 9.13271 5.19531C4.39992 5.19531 0.675293 8.53987 0.675293 13.8568Z" fill="#707A92"/>
<path d="M23.2352 5.19531C18.4344 5.19531 15.0818 8.76391 15.0818 13.8568C15.0818 18.9496 18.4263 22.5822 23.2352 22.5822C28.044 22.5822 31.4165 18.9816 31.4165 13.8568C31.4165 8.7319 28.076 5.19531 23.2352 5.19531ZM23.2352 18.6656C20.9428 18.6656 19.6666 16.6652 19.6666 13.8648C19.6666 11.0643 20.9428 9.08797 23.2352 9.08797C25.5275 9.08797 26.7998 11.0883 26.7998 13.8648C26.7998 16.6412 25.5595 18.6656 23.2352 18.6656Z" fill="#707A92"/>
<path d="M44.5505 6.94736C44.0044 6.3865 43.3503 5.94207 42.6274 5.6409C41.9049 5.33973 41.1288 5.18806 40.3458 5.19506C35.505 5.19506 32.7686 9.11172 32.7686 13.8565C32.7686 18.6573 35.505 22.582 40.3458 22.582C41.1276 22.5817 41.9017 22.4268 42.6234 22.1261C43.3451 21.8253 44 21.3847 44.5505 20.8297V22.2019H49.1673V0.178223H44.5505V6.94736ZM44.5505 16.629C44.2513 17.2061 43.7988 17.6896 43.2423 18.0262C42.6862 18.3629 42.0481 18.5397 41.398 18.5373C38.8816 18.5373 37.3973 16.537 37.3973 13.8565C37.3973 11.1761 38.8936 9.20774 41.398 9.20774C42.0517 9.20918 42.6922 9.39161 43.2487 9.73479C43.8052 10.078 44.2557 10.5685 44.5505 11.1521V16.629Z" fill="#707A92"/>
<path d="M58.4051 5.19531C56.1767 5.19531 54.0443 5.80341 52.8321 6.56754V10.5682C54.1839 9.6775 55.7662 9.20062 57.3849 9.19598C59.7413 9.19598 61.1135 10.2162 61.1135 11.8404V12.7646C60.4414 12.2845 58.8171 11.7764 57.3849 11.7764C53.7243 11.7764 50.9558 13.9408 50.9558 17.1253C50.9558 20.5659 53.7243 22.5062 57.1008 22.5062C58.9131 22.5062 60.5694 21.8701 61.1015 21.33V22.2222H65.5583V11.5644C65.5703 7.5197 62.9578 5.19531 58.4051 5.19531ZM61.1135 17.6774C60.7135 18.5696 59.4892 19.1136 58.181 19.1136C56.7168 19.1136 55.2205 18.5055 55.2205 17.0733C55.2205 15.6411 56.7168 15.037 58.181 15.037C59.4892 15.037 60.6974 15.5771 61.1135 16.4692V17.6774Z" fill="#707A92"/>
</g>
<defs>
<clipPath id="clip0_1_2335">
<rect width="65.2109" height="22.4038" fill="white" transform="translate(0.675049 0.178223)"/>
</clipPath>
</defs>
</svg>
