<svg width="67" height="23" viewBox="0 0 67 23" fill="none" xmlns="http://www.w3.org/2000/svg">
<g clip-path="url(#clip0_1_2337)">
<path fill-rule="evenodd" clip-rule="evenodd" d="M6.85995 14.68C5.10958 14.68 3.83509 13.3149 3.83509 11.334C3.83509 9.35314 5.10958 8.00948 6.85995 8.00948C8.61031 8.00948 9.90621 9.37454 9.90621 11.334C9.90621 13.2935 8.63172 14.68 6.85995 14.68ZM9.79754 5.89521C9.78843 6.22513 9.80274 6.55529 9.84035 6.88319H9.75472C9.18664 5.91826 7.83146 5.32383 6.34126 5.32383C3.12209 5.32383 0.788818 7.81354 0.788818 11.3768C0.788818 14.9402 3.03482 17.4315 6.21117 17.4315C7.8578 17.4315 9.25744 16.7482 9.97043 15.5379H10.0577C10.024 15.8815 10.0081 16.2267 10.01 16.572V17.0791H12.7763V0.568359H9.79754V5.89521Z" fill="#707A92"/>
<path fill-rule="evenodd" clip-rule="evenodd" d="M19.8901 14.7013C18.1414 14.7013 16.9262 13.3148 16.9262 11.3339C16.9262 9.35304 18.1364 8.00939 19.8901 8.00939C21.6438 8.00939 22.854 9.37444 22.854 11.3339C22.854 13.2934 21.6652 14.7013 19.8901 14.7013ZM19.8901 5.32373C16.4124 5.32373 13.9062 7.8546 13.9062 11.3767C13.9062 14.8989 16.4075 17.4314 19.8901 17.4314C23.3727 17.4314 25.897 14.8775 25.897 11.3767C25.897 7.87601 23.3645 5.32373 19.8901 5.32373Z" fill="#707A92"/>
<path fill-rule="evenodd" clip-rule="evenodd" d="M36.498 6.9754C36.5014 6.54147 36.48 6.10769 36.4338 5.67621H33.5374C33.5818 6.27064 33.5818 6.57856 33.5818 6.93094C33.5818 8.93324 32.2859 10.1007 30.557 10.1007C30.3838 10.1045 30.2105 10.0968 30.0383 10.0777V0.568359H27.0134V17.0791H30.0383V12.676C30.254 12.6974 30.4714 12.6974 30.6657 12.6974C30.9028 12.6974 31.1399 12.6974 31.3572 12.676L33.7547 17.0791H37.1468L34.1219 11.8181C35.8509 10.7396 36.498 8.82457 36.498 6.9754Z" fill="#707A92"/>
<path fill-rule="evenodd" clip-rule="evenodd" d="M40.1274 10.3871C40.4288 8.90515 41.4233 8.00939 42.8921 8.00939C44.2967 8.00939 45.2682 8.9562 45.4856 10.3871H40.1274ZM42.958 5.32373C39.4787 5.32373 36.9939 7.8332 36.9939 11.3767C36.9939 14.8775 39.4638 17.4314 43.0008 17.4314C44.901 17.4314 46.4357 16.7481 47.5801 15.2299L45.8314 13.3593C45.0953 14.3045 44.2753 14.7013 43.0222 14.7013C41.4661 14.7013 40.4502 13.8434 40.1274 12.3466H48.3606C48.4232 12.0272 48.4525 11.7022 48.4479 11.3767C48.4479 7.8546 46.2447 5.32373 42.9613 5.32373H42.958Z" fill="#707A92"/>
<path fill-rule="evenodd" clip-rule="evenodd" d="M56.2035 5.67334V12.6814C56.2035 13.7385 55.4477 14.4417 54.4762 14.4417C53.4602 14.4417 52.7258 13.7385 52.7258 12.6814V5.67334H49.6943V12.6814C49.6943 15.2798 51.4019 17.1718 53.7352 17.1718H53.8702H53.89H53.9591H54.0283C55.9878 17.1174 56.5789 15.9286 56.6629 15.7392C56.6728 15.8759 56.6761 16.0109 56.6761 16.1459C56.6761 17.9078 55.5316 19.2284 53.5656 19.2284C53.2198 19.2284 52.9168 19.2284 52.3339 19.1839V22.1331C52.757 22.1807 53.1826 22.2027 53.6084 22.1989C55.4197 22.1989 57.3018 21.5403 58.3606 19.7784C58.7936 19.0654 59.2036 18.3145 59.2036 16.961C59.225 16.7403 59.225 16.4983 59.225 16.2562V5.67334H56.2035Z" fill="#707A92"/>
<path d="M64.4878 16.9326C65.4563 16.9326 66.2415 16.1475 66.2415 15.179C66.2415 14.2104 65.4563 13.4253 64.4878 13.4253C63.5193 13.4253 62.7341 14.2104 62.7341 15.179C62.7341 16.1475 63.5193 16.9326 64.4878 16.9326Z" fill="#707A92"/>
</g>
<defs>
<clipPath id="clip0_1_2337">
<rect width="65.4519" height="21.6219" fill="white" transform="translate(0.790283 0.568848)"/>
</clipPath>
</defs>
</svg>
