<svg width="24" height="25" viewBox="0 0 24 25" fill="none" xmlns="http://www.w3.org/2000/svg">
<g clip-path="url(#clip0_2001_3203)">
<path fill-rule="evenodd" clip-rule="evenodd" d="M0 12.7965C0 18.7625 4.333 23.7235 10 24.7295V16.0625H7V12.7295H10V10.0625C10 7.06249 11.933 5.39649 14.667 5.39649C15.533 5.39649 16.467 5.52949 17.333 5.66249V8.72949H15.8C14.333 8.72949 14 9.46249 14 10.3965V12.7295H17.2L16.667 16.0625H14V24.7295C19.667 23.7235 24 18.7635 24 12.7965C24 6.15949 18.6 0.729492 12 0.729492C5.4 0.729492 0 6.15949 0 12.7965Z" fill="black"/>
</g>
<defs>
<clipPath id="clip0_2001_3203">
<rect width="24" height="24" fill="white" transform="translate(0 0.729492)"/>
</clipPath>
</defs>
</svg>
