<svg width="74" height="74" viewBox="0 0 74 74" fill="none" xmlns="http://www.w3.org/2000/svg">
<path d="M37 18.6C37 28.762 28.762 37 18.6 37C8.43791 37 0.199951 28.762 0.199951 18.6C0.199951 8.43791 8.43791 0.199951 18.6 0.199951C28.762 0.199951 37 8.43791 37 18.6Z" fill="#0286F1"/>
<path d="M73.7998 18.6C73.7998 28.762 65.5618 37 55.3998 37C45.2377 37 36.9998 28.762 36.9998 18.6C36.9998 8.43791 45.2377 0.199951 55.3998 0.199951C65.5618 0.199951 73.7998 8.43791 73.7998 18.6Z" fill="#52E052"/>
<path d="M73.7998 55.3998C73.7998 65.5618 65.5618 73.7998 55.3998 73.7998C45.2377 73.7998 36.9998 65.5618 36.9998 55.3998C36.9998 45.2377 45.2377 36.9998 55.3998 36.9998C65.5618 36.9998 73.7998 45.2377 73.7998 55.3998Z" fill="#0286F1"/>
<path d="M37 55.3998C37 65.5618 28.762 73.7998 18.6 73.7998C8.43791 73.7998 0.199951 65.5618 0.199951 55.3998C0.199951 45.2377 8.43791 36.9998 18.6 36.9998C28.762 36.9998 37 45.2377 37 55.3998Z" fill="#52E052"/>
</svg>
