<svg width="70" height="70" viewBox="0 0 70 70" fill="none" xmlns="http://www.w3.org/2000/svg">
<path d="M69.5 46.4995H46.5C46.5 33.797 56.7975 23.4995 69.5 23.4995V46.4995Z" fill="#0286F1"/>
<path d="M69.5 23.4995H46.5C46.5 10.797 56.7975 0.499512 69.5 0.499512V23.4995Z" fill="#52E052"/>
<path d="M46.5 69.4995H23.5C23.5 56.797 33.7975 46.4995 46.5 46.4995V69.4995Z" fill="#0286F1"/>
<path d="M69.5 69.4995H46.5C46.5 56.797 56.7975 46.4995 69.5 46.4995V69.4995Z" fill="#0286F1"/>
<path d="M46.5 46.4995H23.5C23.5 33.797 33.7975 23.4995 46.5 23.4995V46.4995Z" fill="#52E052"/>
<path d="M23.5 69.4995H0.5C0.5 56.797 10.7975 46.4995 23.5 46.4995V69.4995Z" fill="#52E052"/>
</svg>
