<svg width="72" height="23" viewBox="0 0 72 23" fill="none" xmlns="http://www.w3.org/2000/svg">
<g clip-path="url(#clip0_1_2339)">
<path fill-rule="evenodd" clip-rule="evenodd" d="M34.2987 1.03329C33.7659 1.47379 33.4074 2.08973 33.2877 2.77064C33.08 4.19398 34.0589 5.29194 35.4836 5.29194C36.9374 5.29194 38.1544 4.31304 38.3621 2.94786C38.5989 1.49407 37.62 0.367032 36.1953 0.367032C35.504 0.356581 34.8317 0.592791 34.2987 1.03329ZM21.9843 12.9666C22.0187 12.3016 22.0085 11.6351 21.9538 10.9714H11.0822L9.24068 14.7582H17.3363C16.7201 16.9444 14.4106 18.329 11.6415 18.329C7.4532 18.329 4.68407 15.5281 4.68407 11.5571C4.68407 7.67757 7.51689 4.84614 11.3023 4.84614C14.1656 4.84614 15.8589 6.3207 16.7229 8.04725H21.4304C20.2909 3.67618 16.6287 0.720125 11.3023 0.720125C4.96098 0.720125 0.312988 5.33765 0.312988 11.5571C0.312988 17.8361 4.90006 22.3928 11.6415 22.3817C17.8306 22.3817 21.7377 17.9842 21.9843 12.9666ZM26.0473 1.05931L22.7228 22.0535H26.9722L30.2951 1.05931H26.0473ZM30.6929 22.0535L32.9706 7.58474H37.2184L34.9408 22.0535H30.6929ZM56.1785 1.05931H51.9306L50.636 9.15487C49.8676 8.01676 48.483 7.24694 46.4823 7.24694C43.0957 7.24694 39.4958 9.52455 38.7551 14.2044C37.862 19.8673 41.556 22.3927 44.4193 22.3927C46.3286 22.3927 47.8988 21.6215 49.0064 20.2369L49.923 22.0535H54.6388L53.5783 18.1919L56.1785 1.05931ZM46.8825 10.941C48.5135 10.941 50.2677 12.4183 49.8676 15.0046C49.437 17.7752 47.3435 18.6987 45.8648 18.6987C43.9264 18.6987 42.5114 17.0359 42.8797 14.6654C43.2189 12.4183 44.8499 10.941 46.8825 10.941ZM71.4478 16.2051H60.5804C61.0429 18.0521 62.3361 18.9742 64.1207 18.9742C65.7532 18.9742 66.613 18.5741 67.2 17.681H71.0477C70.1242 21.0358 67.0768 22.3886 64.2135 22.3886C59.6264 22.3886 56.6413 19.1556 56.6413 14.815C56.6413 10.5062 59.7192 7.24279 64.0902 7.24279C68.4613 7.24279 71.4797 10.5104 71.4797 14.8192C71.4797 15.4049 71.4797 15.6194 71.4478 16.2051ZM60.55 13.3722H67.603C67.326 11.8022 65.8473 10.6945 64.0931 10.6945C62.2433 10.6945 60.957 11.7717 60.55 13.3722Z" fill="#707A92"/>
</g>
<defs>
<clipPath id="clip0_1_2339">
<rect width="71.5835" height="22.0257" fill="white" transform="translate(0.313232 0.367188)"/>
</clipPath>
</defs>
</svg>
