<svg width="79" height="25" viewBox="0 0 79 25" fill="none" xmlns="http://www.w3.org/2000/svg">
<path d="M9.86056 8.84349V11.4818H16.2277C16.0586 12.9414 15.5515 14.0641 14.7627 14.7938C13.8611 15.692 12.3961 16.7024 9.86056 16.7024C5.97268 16.7024 2.92999 13.5588 2.92999 9.68552C2.92999 5.81219 5.91633 2.66863 9.86056 2.66863C11.9454 2.66863 13.523 3.51065 14.65 4.57722L16.5094 2.72476C14.9317 1.20911 12.7905 0.0302734 9.86056 0.0302734C4.50768 0.0302734 0 4.35268 0 9.68552C0 15.0184 4.50768 19.3408 9.86056 19.3408C12.7342 19.3408 14.9317 18.3865 16.6221 16.6463C18.3688 14.9061 18.9323 12.4361 18.9323 10.4714C18.9323 9.85392 18.8759 9.29257 18.8196 8.84349H9.86056V8.84349Z" fill="#707A92"/>
<path d="M26.8205 6.6543C23.3834 6.6543 20.5098 9.29265 20.5098 12.8853C20.5098 16.4779 23.3271 19.1163 26.8205 19.1163C30.314 19.1163 33.1313 16.5341 33.1313 12.9414C33.1313 9.29265 30.314 6.6543 26.8205 6.6543ZM26.8205 16.7025C24.9048 16.7025 23.2707 15.1307 23.2707 12.9414C23.2707 10.696 24.9048 9.18038 26.8205 9.18038C28.7363 9.18038 30.3703 10.696 30.3703 12.9414C30.3703 15.1307 28.7363 16.7025 26.8205 16.7025Z" fill="#707A92"/>
<path d="M57.6421 8.05768H57.5294C56.9096 7.32792 55.7263 6.6543 54.205 6.6543C51.0496 6.6543 48.345 9.34878 48.345 12.8853C48.345 16.3657 51.0496 19.1163 54.205 19.1163C55.7263 19.1163 56.9096 18.4427 57.5294 17.7129H57.6421V18.6111C57.6421 20.9688 56.3461 22.2599 54.3176 22.2599C52.6273 22.2599 51.613 21.081 51.1623 20.0145L48.7957 21.0249C49.4719 22.6528 51.3313 24.7298 54.374 24.7298C57.5857 24.7298 60.3467 22.8212 60.3467 18.2181V6.99111H57.7548V8.05768H57.6421ZM54.4867 16.7025C52.5709 16.7025 51.1623 15.0746 51.1623 12.9414C51.1623 10.7522 52.6273 9.18038 54.4867 9.18038C56.3461 9.18038 57.8111 10.8083 57.8111 12.9976C57.8674 15.1307 56.4024 16.7025 54.4867 16.7025Z" fill="#707A92"/>
<path d="M40.851 6.6543C37.4139 6.6543 34.5403 9.29265 34.5403 12.8853C34.5403 16.4779 37.3576 19.1163 40.851 19.1163C44.3445 19.1163 47.1618 16.5341 47.1618 12.9414C47.1618 9.29265 44.3445 6.6543 40.851 6.6543ZM40.851 16.7025C38.9353 16.7025 37.3012 15.1307 37.3012 12.9414C37.3012 10.696 38.9353 9.18038 40.851 9.18038C42.7668 9.18038 44.4008 10.696 44.4008 12.9414C44.4008 15.1307 42.7668 16.7025 40.851 16.7025Z" fill="#707A92"/>
<path d="M62.4314 0.311035H65.136V19.1724H62.4314V0.311035Z" fill="#707A92"/>
<path d="M73.4752 16.7025C72.0665 16.7025 71.1086 16.085 70.4325 14.7939L78.828 11.3696L78.5463 10.6399C78.0392 9.23651 76.4052 6.6543 73.1934 6.6543C69.9817 6.6543 67.2771 9.18038 67.2771 12.8853C67.2771 16.3657 69.9254 19.1163 73.4752 19.1163C76.3488 19.1163 77.9828 17.3761 78.7153 16.3657L76.5742 14.9623C75.8417 16.0289 74.8838 16.7025 73.4752 16.7025ZM73.3061 9.01197C74.433 9.01197 75.3909 9.57332 75.6727 10.3592L70.0381 12.7169C69.9817 10.1347 71.8975 9.01197 73.3061 9.01197Z" fill="#707A92"/>
</svg>
