<svg width="119" height="93" viewBox="0 0 119 93" fill="none" xmlns="http://www.w3.org/2000/svg">
<rect y="13.7295" width="66" height="66" rx="33" fill="#52E052"/>
<rect x="27" y="0.729492" width="92" height="92" rx="46" fill="#0286F1"/>
<path d="M75.835 54.6863C75.6133 54.6863 75.3916 54.6046 75.2166 54.4296C74.8783 54.0913 74.8783 53.5313 75.2166 53.193L81.68 46.7296L75.2166 40.2663C74.8783 39.928 74.8783 39.368 75.2166 39.0296C75.555 38.6913 76.115 38.6913 76.4533 39.0296L83.535 46.1113C83.8733 46.4496 83.8733 47.0096 83.535 47.348L76.4533 54.4296C76.2783 54.6046 76.0566 54.6863 75.835 54.6863Z" fill="white"/>
<path d="M82.7183 47.6045H63.0833C62.6049 47.6045 62.2083 47.2078 62.2083 46.7295C62.2083 46.2512 62.6049 45.8545 63.0833 45.8545H82.7183C83.1966 45.8545 83.5933 46.2512 83.5933 46.7295C83.5933 47.2078 83.1966 47.6045 82.7183 47.6045Z" fill="white"/>
</svg>
