<svg width="124" height="41" viewBox="0 0 124 41" fill="none" xmlns="http://www.w3.org/2000/svg">
<g clip-path="url(#clip0_129_1833)">
<path d="M73.6769 12.0662C71.1579 12.0662 68.6955 14.3473 68.4123 17.6433V12.3379H64.7948V28.3349H68.4566V20.5917C68.4566 18.4227 69.994 15.363 73.6769 15.363V12.0662Z" fill="black" fill-opacity="0.7"/>
<path d="M112.087 25.774V14.8141H114.208C117.037 14.8141 119.335 16.5818 119.335 20.2057C119.335 23.8294 117.037 25.774 114.208 25.774H112.087ZM108.463 28.3372H114.651C118.451 28.3372 123.135 25.8624 123.135 20.2057C123.135 14.6373 118.451 12.3393 114.651 12.3393H108.463V28.3372Z" fill="black" fill-opacity="0.7"/>
<path d="M94.5975 20.3826C94.5975 17.4659 96.1 15.0794 98.5747 15.0794C100.961 15.0794 102.287 17.4659 102.287 20.3826C102.287 23.2994 100.961 25.6858 98.5747 25.6858C96.1 25.6858 94.5975 23.2994 94.5975 20.3826ZM90.8853 20.5594C90.8853 25.3322 93.3599 28.6909 97.249 28.6909C100.077 28.6909 101.757 26.8348 102.641 23.8296V28.3374H106.264V12.3395H102.641V16.582C101.845 13.7536 100.166 12.0743 97.5144 12.0743C93.5367 12.0743 90.8853 15.6981 90.8853 20.5594Z" fill="black" fill-opacity="0.7"/>
<path d="M8.36387 28.6909C3.85617 28.6909 1.20459 25.0671 1.20459 20.5594C1.20459 15.8749 4.12133 12.0743 9.68965 12.0743C15.4348 12.0743 17.3793 15.9633 17.4676 18.1729H13.3135C13.2251 16.9355 12.1645 15.0794 9.60125 15.0794C6.86129 15.0794 5.09358 17.4659 5.09358 20.3826C5.09358 23.2994 6.86129 25.6858 9.60125 25.6858C12.0761 25.6858 13.1367 23.7413 13.5786 21.7968H9.60125V20.2058H17.9471V28.3374H14.2857V23.211C14.0206 25.0671 12.8715 28.6909 8.36387 28.6909Z" fill="black" fill-opacity="0.7"/>
<path d="M25.3708 28.6907C21.9238 28.6907 19.8025 26.3927 19.8025 21.7966V12.3393H23.5147V21.7966C23.5147 24.183 24.6637 25.332 26.6082 25.332C30.4088 25.332 31.823 20.6476 31.823 17.3773V12.3393H35.5352V28.3372H31.9113V22.4153C31.2043 25.6856 29.2598 28.6907 25.3708 28.6907Z" fill="black" fill-opacity="0.7"/>
<path d="M57.7184 12.0659C54.5512 12.0659 52.5532 15.1254 51.901 17.9542C51.7895 14.1632 49.9253 12.0659 46.9423 12.0659C44.3652 12.0659 41.9743 14.3642 41.3533 18V12.3381H37.7345V28.3363H41.3997V22.601C41.3997 21.1791 41.9924 15.3442 45.6821 15.3442C48.0722 15.3442 48.3214 17.5001 48.3214 20.4472V28.3363H51.9848V22.601C51.9848 21.1791 52.6021 15.3442 56.2917 15.3442C58.6799 15.3442 58.9266 17.5001 58.9266 20.4472V28.3363H62.595V18.8734C62.6117 14.3337 61.0088 12.0659 57.7184 12.0659Z" fill="black" fill-opacity="0.7"/>
<path d="M81.5403 12.0659C76.7955 12.0659 73.5804 15.7864 73.5804 20.3784C73.5804 25.4382 76.6381 28.6908 81.5403 28.6908C86.285 28.6908 89.5572 24.9705 89.5572 20.3784C89.5572 15.3186 86.4402 12.0659 81.5403 12.0659ZM81.5403 25.8591C78.778 25.8591 76.989 23.5205 76.989 20.3784C76.989 17.2362 78.7841 14.8976 81.5403 14.8976C84.2959 14.8976 86.0196 17.2362 86.0196 20.3784C86.0196 23.5205 84.2943 25.8591 81.5403 25.8591Z" fill="black" fill-opacity="0.7"/>
</g>
<defs>
<clipPath id="clip0_129_1833">
<rect width="123" height="40" fill="white" transform="translate(0.25 0.51709)"/>
</clipPath>
</defs>
</svg>
