<svg width="22" height="23" viewBox="0 0 22 23" fill="none" xmlns="http://www.w3.org/2000/svg">
<path d="M11 2.3002C13.9391 2.3002 14.2871 2.31309 15.443 2.36465C16.5172 2.41191 17.0973 2.59238 17.484 2.74277C17.9953 2.94043 18.3648 3.18105 18.7473 3.56348C19.134 3.9502 19.3703 4.31543 19.568 4.82676C19.7184 5.21348 19.8988 5.79785 19.9461 6.86777C19.9977 8.02793 20.0105 8.37598 20.0105 11.3107C20.0105 14.2498 19.9977 14.5979 19.9461 15.7537C19.8988 16.8279 19.7184 17.408 19.568 17.7947C19.3703 18.3061 19.1297 18.6756 18.7473 19.058C18.3605 19.4447 17.9953 19.6811 17.484 19.8787C17.0973 20.0291 16.5129 20.2096 15.443 20.2568C14.2828 20.3084 13.9348 20.3213 11 20.3213C8.06094 20.3213 7.71289 20.3084 6.55703 20.2568C5.48281 20.2096 4.90274 20.0291 4.51602 19.8787C4.00469 19.6811 3.63516 19.4404 3.25273 19.058C2.86602 18.6713 2.62969 18.3061 2.43203 17.7947C2.28164 17.408 2.10117 16.8236 2.05391 15.7537C2.00234 14.5936 1.98945 14.2455 1.98945 11.3107C1.98945 8.37168 2.00234 8.02363 2.05391 6.86777C2.10117 5.79355 2.28164 5.21348 2.43203 4.82676C2.62969 4.31543 2.87031 3.9459 3.25273 3.56348C3.63945 3.17676 4.00469 2.94043 4.51602 2.74277C4.90274 2.59238 5.48711 2.41191 6.55703 2.36465C7.71289 2.31309 8.06094 2.3002 11 2.3002ZM11 0.319336C8.01367 0.319336 7.63984 0.332227 6.4668 0.383789C5.29805 0.435352 4.49453 0.624414 3.79844 0.895117C3.07227 1.17871 2.45781 1.55254 1.84766 2.16699C1.2332 2.77715 0.859375 3.3916 0.575781 4.11348C0.305078 4.81387 0.116016 5.61309 0.0644531 6.78184C0.0128906 7.95918 0 8.33301 0 11.3193C0 14.3057 0.0128906 14.6795 0.0644531 15.8525C0.116016 17.0213 0.305078 17.8248 0.575781 18.5209C0.859375 19.2471 1.2332 19.8615 1.84766 20.4717C2.45781 21.0818 3.07227 21.46 3.79414 21.7393C4.49453 22.01 5.29375 22.199 6.4625 22.2506C7.63555 22.3021 8.00938 22.315 10.9957 22.315C13.982 22.315 14.3559 22.3021 15.5289 22.2506C16.6977 22.199 17.5012 22.01 18.1973 21.7393C18.9191 21.46 19.5336 21.0818 20.1438 20.4717C20.7539 19.8615 21.132 19.2471 21.4113 18.5252C21.682 17.8248 21.8711 17.0256 21.9227 15.8568C21.9742 14.6838 21.9871 14.31 21.9871 11.3236C21.9871 8.33731 21.9742 7.96348 21.9227 6.79043C21.8711 5.62168 21.682 4.81816 21.4113 4.12207C21.1406 3.3916 20.7668 2.77715 20.1523 2.16699C19.5422 1.55684 18.9277 1.17871 18.2059 0.899414C17.5055 0.628711 16.7063 0.439648 15.5375 0.388086C14.3602 0.332227 13.9863 0.319336 11 0.319336Z" fill="black"/>
<path d="M11 5.66895C7.88047 5.66895 5.34961 8.19981 5.34961 11.3193C5.34961 14.4389 7.88047 16.9697 11 16.9697C14.1195 16.9697 16.6504 14.4389 16.6504 11.3193C16.6504 8.19981 14.1195 5.66895 11 5.66895ZM11 14.9846C8.97617 14.9846 7.33477 13.3432 7.33477 11.3193C7.33477 9.29551 8.97617 7.6541 11 7.6541C13.0238 7.6541 14.6652 9.29551 14.6652 11.3193C14.6652 13.3432 13.0238 14.9846 11 14.9846Z" fill="black"/>
<path d="M18.193 5.44561C18.193 6.17608 17.6 6.76475 16.8738 6.76475C16.1434 6.76475 15.5547 6.17178 15.5547 5.44561C15.5547 4.71514 16.1477 4.12646 16.8738 4.12646C17.6 4.12646 18.193 4.71943 18.193 5.44561Z" fill="black"/>
</svg>
