<svg width="70" height="80" viewBox="0 0 70 80" fill="none" xmlns="http://www.w3.org/2000/svg">
<path d="M35 0.800049L69.2999 20.4V59.6001L35 79.2001L0.699951 59.6001V20.4L35 0.800049Z" fill="#0286F1"/>
<path d="M29.0914 17.95L51.1414 23.8582L57.0497 45.9082L40.908 62.0499L18.858 56.1417L12.9497 34.0917L29.0914 17.95Z" fill="white"/>
<path d="M30.0997 31.5129C33.1318 29.7623 36.8676 29.7623 39.8997 31.5129C42.9318 33.2635 44.7997 36.4987 44.7997 40C44.7997 43.5012 42.9318 46.7364 39.8997 48.487C36.8676 50.2376 33.1318 50.2376 30.0997 48.487C27.0676 46.7364 25.1997 43.5012 25.1997 40C25.1997 36.4987 27.0676 33.2635 30.0997 31.5129Z" fill="#52E052"/>
</svg>
