<svg width="20" height="21" viewBox="0 0 20 21" fill="none" xmlns="http://www.w3.org/2000/svg">
<rect y="0.51709" width="20" height="20" rx="10" fill="#2563EB"/>
<path fill-rule="evenodd" clip-rule="evenodd" d="M8.92842 9.25434H10.4759V10.0252C10.6988 9.58184 11.2705 9.1835 12.1293 9.1835C13.7755 9.1835 14.1663 10.066 14.1663 11.6852V14.6839H12.4997V12.0539C12.4997 11.1318 12.2768 10.6118 11.7093 10.6118C10.9222 10.6118 10.5951 11.1723 10.5951 12.0535V14.6839H8.92842V9.25434ZM6.07051 14.6131H7.73717V9.1835H6.07051V14.6131ZM7.97592 7.41309C7.97599 7.55278 7.94828 7.6911 7.89442 7.82C7.84056 7.94889 7.76161 8.0658 7.66217 8.16392C7.46067 8.36418 7.18793 8.47627 6.90384 8.47559C6.62025 8.4754 6.34814 8.36359 6.14634 8.16434C6.04726 8.06588 5.96859 7.94885 5.91482 7.81993C5.86105 7.69102 5.83325 7.55276 5.83301 7.41309C5.83301 7.131 5.94551 6.861 6.14676 6.66184C6.34838 6.46232 6.62061 6.35046 6.90426 6.35059C7.18842 6.35059 7.46092 6.46267 7.66217 6.66184C7.86301 6.861 7.97592 7.131 7.97592 7.41309Z" fill="#F6F8FA"/>
</svg>
