<svg width="24" height="25" viewBox="0 0 24 25" fill="none" xmlns="http://www.w3.org/2000/svg">
<path fill-rule="evenodd" clip-rule="evenodd" d="M9.429 9.69849H13.143V11.5485C13.678 10.4845 15.05 9.52849 17.111 9.52849C21.062 9.52849 22 11.6465 22 15.5325V22.7295H18V16.4175C18 14.2045 17.465 12.9565 16.103 12.9565C14.214 12.9565 13.429 14.3015 13.429 16.4165V22.7295H9.429V9.69849ZM2.57 22.5595H6.57V9.52849H2.57V22.5595ZM7.143 5.27949C7.14315 5.61477 7.07666 5.94673 6.94739 6.25608C6.81812 6.56543 6.62865 6.84601 6.39 7.08149C5.9064 7.56212 5.25181 7.83115 4.57 7.82949C3.88939 7.82904 3.23631 7.56069 2.752 7.08249C2.51421 6.8462 2.32539 6.56532 2.19634 6.25592C2.0673 5.94653 2.00058 5.61472 2 5.27949C2 4.60249 2.27 3.95449 2.753 3.47649C3.23689 2.99765 3.89024 2.72919 4.571 2.72949C5.253 2.72949 5.907 2.99849 6.39 3.47649C6.872 3.95449 7.143 4.60249 7.143 5.27949Z" fill="black"/>
</svg>
