<svg width="140" height="39" viewBox="0 0 140 39" fill="none" xmlns="http://www.w3.org/2000/svg">
<path fill-rule="evenodd" clip-rule="evenodd" d="M63.6864 23.8988C62.7151 24.1228 62.2126 23.824 62.2126 23.1806C62.2126 22.2991 63.1241 21.9462 64.4262 21.9462C64.999 21.9462 65.5393 21.9957 65.5393 21.9957C65.5393 22.3731 64.7192 23.6607 63.6864 23.8988ZM64.6748 15.0731C61.5655 15.0731 59.3332 16.2164 59.3332 16.2164V19.5776C59.3332 19.5776 61.7978 18.1607 63.7974 18.1607C65.3926 18.1607 65.5887 19.0215 65.5164 19.7355C65.5164 19.7355 65.0559 19.6137 63.6519 19.6137C60.3423 19.6137 58.6723 21.1179 58.6723 23.5293C58.6723 25.8169 60.5493 26.7728 62.1312 26.7728C64.4387 26.7728 65.4537 25.2217 65.765 24.4861C65.9815 23.9757 66.0214 23.6316 66.2151 23.6316C66.4374 23.6316 66.3626 23.8784 66.3514 24.3863C66.3331 25.2762 66.3755 25.9487 66.5164 26.5156H69.5766V21.0111C69.5766 17.5743 68.3605 15.0731 64.6748 15.0731Z" fill="black" fill-opacity="0.7"/>
<path fill-rule="evenodd" clip-rule="evenodd" d="M84.8162 20.9285C84.8162 19.9231 85.7509 19.0075 87.4666 19.0075C89.3357 19.0075 90.8398 19.9078 91.1769 20.1122V16.2212C91.1769 16.2212 89.9891 15.0774 87.0693 15.0774C83.9916 15.0774 81.4285 16.8783 81.4285 20.7548C81.4285 24.6309 83.7547 26.7805 87.061 26.7805C89.6441 26.7805 91.1835 25.3611 91.1835 25.3611V21.6658C90.6964 21.9381 89.3394 22.8803 87.4853 22.8803C85.5224 22.8803 84.8162 21.9767 84.8162 20.9285ZM43.9148 15.3322C43.9152 15.3347 44.1101 16.1709 43.8533 17.2644C43.7223 17.8205 43.4817 18.2935 43.7722 18.2935C43.9725 18.2935 43.973 18.1272 44.2336 17.5312C44.6147 16.6601 45.4181 15.0745 47.2955 15.0745C49.0801 15.0745 49.9209 16.1588 50.1994 17.1742C50.4114 17.9456 50.226 18.2935 50.4845 18.2935C50.6682 18.2935 50.7318 17.8932 50.9579 17.387C51.364 16.4801 52.2472 15.0745 54.0335 15.0745C56.7288 15.0745 57.7579 17.0208 57.7579 19.9406V26.5195H53.7538V20.4543C53.7538 19.4431 53.5905 18.4622 52.6686 18.4622C51.8145 18.4622 51.4164 19.9759 51.4164 20.953V26.522H47.3387V20.4547C47.3387 19.1609 47.1562 18.4626 46.2468 18.4626C45.4596 18.4626 45.0004 19.8554 45.0004 20.9535V26.5199H40.9389V15.3322H43.9148ZM70.9095 15.3475C70.9111 15.3484 71.6023 15.747 72.944 15.747C74.2881 15.747 74.9705 15.3475 74.9705 15.3475V26.5224H70.9095V15.3475ZM104.437 15.3475C104.439 15.3484 105.13 15.747 106.472 15.747C107.816 15.747 108.499 15.3475 108.499 15.3475V26.5224H104.437V15.3475ZM80.3462 11.9453V26.5224H76.2847V11.9453H80.3462ZM96.0035 11.9453C96.0039 11.9465 96.1719 12.3655 96.1719 13.6115C96.1719 15.4515 95.7716 16.9489 95.5825 17.5196C95.4823 17.8217 95.3036 18.2881 95.5601 18.2964C95.708 18.301 95.797 18.0782 95.9782 17.6917C96.1586 17.3047 97.053 15.077 99.4037 15.077C102.642 15.077 103.118 17.7286 103.118 20.6002V26.522H99.0567V20.357C99.0567 19.0927 98.7915 18.4647 97.9441 18.4647C96.9208 18.4647 96.5592 20.0491 96.5592 20.956V26.522H92.4977V11.9448L96.0035 11.9453ZM112.847 15.3322C112.847 15.3347 113.042 16.1709 112.785 17.2644C112.654 17.8205 112.414 18.2935 112.704 18.2935C112.904 18.2935 112.905 18.1272 113.165 17.5312C113.546 16.6601 114.35 15.0745 116.227 15.0745C118.093 15.0745 118.834 16.1638 119.131 17.1742C119.331 17.8513 119.158 18.2935 119.416 18.2935C119.6 18.2935 119.664 17.8932 119.89 17.387C120.295 16.4801 121.179 15.0745 122.965 15.0745C125.661 15.0745 126.69 17.0208 126.69 19.9406V26.5195H122.686V20.4543C122.686 19.4431 122.522 18.4622 121.6 18.4622C120.746 18.4622 120.348 19.9759 120.348 20.953V26.522H116.27V20.4547C116.27 19.1609 116.088 18.4626 115.179 18.4626C114.392 18.4626 113.932 19.8554 113.932 20.9535V26.5199H109.871V15.3322H112.847ZM72.9277 11.8322C71.5554 11.8322 70.4419 12.5587 70.4419 13.4548C70.4419 14.3509 71.5549 15.0774 72.9277 15.0774C74.301 15.0774 75.414 14.3509 75.414 13.4548C75.414 12.5587 74.3014 11.8322 72.9277 11.8322ZM106.456 11.8322C105.083 11.8322 103.97 12.5587 103.97 13.4548C103.97 14.3509 105.083 15.0774 106.456 15.0774C107.829 15.0774 108.942 14.3509 108.942 13.4548C108.942 12.5587 107.829 11.8322 106.456 11.8322Z" fill="black" fill-opacity="0.7"/>
<path fill-rule="evenodd" clip-rule="evenodd" d="M133.608 24.1116C132.677 24.1116 131.992 22.9308 131.992 21.2854C131.992 19.6873 132.695 18.46 133.576 18.46C134.705 18.46 135.187 19.4961 135.187 21.2854C135.187 23.147 134.743 24.1116 133.608 24.1116ZM134.722 15.0706C132.635 15.0706 131.678 16.6354 131.263 17.5269C130.988 18.1158 131.003 18.2892 130.801 18.2892C130.512 18.2892 130.752 17.8162 130.883 17.2601C131.141 16.1649 130.945 15.3283 130.945 15.3283H127.971V29.602H132.03V25.0767C132.51 25.8917 133.4 26.7625 134.772 26.7625C137.709 26.7625 139.186 24.2783 139.186 20.9221C139.186 17.1183 137.418 15.0706 134.723 15.0706" fill="black" fill-opacity="0.7"/>
<path fill-rule="evenodd" clip-rule="evenodd" d="M26.5818 18.448C26.8549 18.4156 27.1163 18.4139 27.3569 18.448C27.4962 18.1288 27.5199 17.5789 27.3948 16.98C27.209 16.0898 26.9571 15.5511 26.4368 15.6351C25.9164 15.719 25.8973 16.3641 26.0835 17.2539C26.1882 17.7547 26.3744 18.1828 26.5818 18.448Z" fill="black" fill-opacity="0.7"/>
<path fill-rule="evenodd" clip-rule="evenodd" d="M22.1176 19.1525C22.4895 19.3159 22.7185 19.4243 22.8079 19.3296C22.8657 19.2706 22.8482 19.1579 22.7593 19.0129C22.5756 18.7132 22.1978 18.409 21.7967 18.2382C20.9771 17.8853 19.9991 18.0025 19.2448 18.5445C18.9958 18.7269 18.7597 18.9796 18.7934 19.133C18.8042 19.1824 18.8416 19.2199 18.9289 19.2323C19.1342 19.2556 19.8516 18.8932 20.6783 18.8425C21.2614 18.8067 21.7452 18.9892 22.1176 19.1525Z" fill="black" fill-opacity="0.7"/>
<path fill-rule="evenodd" clip-rule="evenodd" d="M21.3704 19.5798C20.8854 19.6563 20.6182 19.8163 20.4465 19.9647C20.3002 20.0927 20.2096 20.2344 20.2104 20.3338C20.2109 20.3811 20.2312 20.4086 20.2474 20.4223C20.2695 20.4418 20.2956 20.4526 20.3272 20.4526C20.4365 20.4526 20.6822 20.3541 20.6822 20.3541C21.3567 20.1126 21.8019 20.1422 22.2428 20.192C22.4864 20.2195 22.6019 20.2344 22.6551 20.1509C22.6709 20.1268 22.69 20.0748 22.6414 19.9959C22.528 19.8117 22.0379 19.5004 21.3704 19.5798Z" fill="black" fill-opacity="0.7"/>
<path fill-rule="evenodd" clip-rule="evenodd" d="M25.0754 21.1477C25.4045 21.3093 25.767 21.2458 25.885 21.0059C26.003 20.7661 25.8318 20.4403 25.5026 20.2786C25.1735 20.1169 24.811 20.1805 24.693 20.4203C24.575 20.6606 24.7462 20.986 25.0754 21.1477Z" fill="black" fill-opacity="0.7"/>
<path fill-rule="evenodd" clip-rule="evenodd" d="M27.192 19.2987C26.9248 19.2941 26.7028 19.5875 26.6966 19.9545C26.6904 20.3215 26.9023 20.622 27.1696 20.6266C27.4368 20.6312 27.6588 20.3377 27.665 19.9707C27.6712 19.6042 27.4593 19.3032 27.192 19.2987Z" fill="black" fill-opacity="0.7"/>
<path fill-rule="evenodd" clip-rule="evenodd" d="M9.22884 25.911C9.16234 25.8275 9.05304 25.8528 8.94705 25.8778C8.87307 25.8952 8.78953 25.9143 8.69768 25.9131C8.50109 25.9093 8.33442 25.8254 8.24091 25.6816C8.11913 25.4946 8.12619 25.2157 8.26044 24.8965L8.3232 24.7535C8.53766 24.2722 8.89635 23.4671 8.49361 22.6999C8.1902 22.1222 7.69561 21.7627 7.10086 21.687C6.52979 21.6147 5.9421 21.8263 5.56721 22.2398C4.97577 22.8923 4.88309 23.7805 4.99739 24.0943C5.03936 24.209 5.10503 24.241 5.15241 24.2477C5.25299 24.261 5.40179 24.1878 5.49489 23.9372L5.52149 23.8557C5.56305 23.7232 5.64035 23.4763 5.76712 23.2785C5.92007 23.0399 6.15781 22.8757 6.43711 22.8154C6.72139 22.7544 7.01233 22.8088 7.25588 22.9684C7.67026 23.2394 7.82986 23.7473 7.6528 24.2315C7.56137 24.4821 7.41257 24.9613 7.4454 25.3549C7.5119 26.1517 8.00192 26.4717 8.44207 26.5058C8.87016 26.522 9.16941 26.2813 9.24505 26.1059C9.28952 26.002 9.25212 25.9389 9.22759 25.9118" fill="black" fill-opacity="0.7"/>
<path fill-rule="evenodd" clip-rule="evenodd" d="M13.3005 11.277C14.697 9.6636 16.4156 8.26088 17.9555 7.47327C18.0087 7.44584 18.0652 7.50361 18.0366 7.55598C17.9144 7.77751 17.6787 8.25173 17.6043 8.61124C17.5927 8.66735 17.6538 8.70933 17.7012 8.67733C18.6592 8.02439 20.3254 7.32448 21.7871 7.2347C21.8499 7.23096 21.8802 7.31118 21.8304 7.34983C21.608 7.52024 21.3649 7.75631 21.1874 7.99488C21.1571 8.03561 21.1857 8.0938 21.2364 8.09421C22.2626 8.10169 23.7094 8.46079 24.6524 8.98988C24.716 9.02562 24.6707 9.14906 24.5992 9.13285C23.1724 8.80576 20.837 8.55763 18.4106 9.14948C16.2448 9.67774 14.5915 10.4936 13.3857 11.3706C13.3246 11.415 13.2511 11.334 13.3005 11.277ZM20.2547 26.9095L20.2552 26.9103L20.256 26.912L20.2547 26.9095ZM26.0128 27.589C26.0543 27.5715 26.0826 27.5246 26.078 27.4776C26.0722 27.4198 26.0207 27.3779 25.9629 27.3837C25.9629 27.3837 22.9833 27.8247 20.1683 26.7943C20.475 25.7977 21.2901 26.1576 22.5224 26.2569C24.7435 26.3895 26.7343 26.0649 28.2056 25.6426C29.4803 25.2769 31.1549 24.5554 32.4553 23.5288C32.8938 24.4922 33.0489 25.5529 33.0489 25.5529C33.0489 25.5529 33.3884 25.4922 33.6723 25.6667C33.9404 25.8317 34.137 26.1746 34.0027 27.0616C33.7292 28.7182 33.0252 30.0632 31.8415 31.3005C31.1208 32.0761 30.2463 32.7502 29.2455 33.2406C28.7139 33.5199 28.1482 33.7614 27.5502 33.9563C23.088 35.4139 18.5203 33.8117 17.0482 30.3712C16.9306 30.1127 16.8313 29.8417 16.7531 29.5586C16.1259 27.2914 16.6584 24.5712 18.3233 22.8588C18.426 22.7499 18.5307 22.6206 18.5307 22.459C18.5307 22.3239 18.4447 22.1813 18.3703 22.0799C17.7876 21.235 15.7698 19.7952 16.175 17.0089C16.4659 15.0073 18.2165 13.5975 19.8487 13.681L20.2622 13.7047C20.9696 13.7467 21.5864 13.8373 22.1687 13.8618C23.1433 13.9042 24.0194 13.7625 25.0577 12.8976C25.4076 12.6058 25.6886 12.3527 26.1636 12.2725C26.2135 12.2637 26.3378 12.2193 26.5859 12.2309C26.8394 12.2446 27.0805 12.314 27.297 12.4583C28.1291 13.0119 28.2472 14.3531 28.2904 15.3339C28.3149 15.8938 28.3827 17.2487 28.4059 17.6377C28.4587 18.5272 28.6927 18.6523 29.1657 18.8081C29.4317 18.8958 29.6786 18.9611 30.0427 19.0633C31.1441 19.3726 31.797 19.6863 32.2089 20.0895C32.4545 20.3414 32.5688 20.609 32.6041 20.8642C32.7338 21.8118 31.8685 22.9822 29.5772 24.0458C27.0726 25.2083 24.034 25.5026 21.9347 25.2686L21.199 25.1855C19.5199 24.9594 18.5619 27.1293 19.5698 28.6164C20.2194 29.5748 21.9887 30.1983 23.7589 30.1987C27.8174 30.1991 30.9371 28.466 32.0975 26.9693L32.1902 26.8371C32.2475 26.7511 32.2001 26.7037 32.1291 26.7524C31.181 27.4011 26.97 29.9767 22.4654 29.2016C22.4654 29.2016 21.9181 29.1114 21.4185 28.9173C21.0216 28.7627 20.1903 28.3803 20.0893 27.5279C23.7244 28.6522 26.0128 27.589 26.0128 27.589ZM6.04668 18.9503C4.78236 19.1959 3.66807 19.9124 2.98687 20.9025C2.57956 20.5629 1.82104 19.9054 1.6868 19.6489C0.599111 17.5833 2.87381 13.5675 4.46315 11.2995C8.39079 5.69482 14.542 1.45256 17.3894 2.22229C17.8524 2.35321 19.3857 4.13083 19.3857 4.13083C19.3857 4.13083 16.5391 5.7102 13.8995 7.91175C10.3426 10.6503 7.65639 14.6307 6.04668 18.9503ZM8.17092 28.4286C7.97974 28.4614 7.7844 28.4743 7.58739 28.4693C5.68509 28.4182 3.63066 26.7058 3.42659 24.6751C3.20091 22.4303 4.34803 20.703 6.37876 20.2932C6.62148 20.2441 6.91491 20.2159 7.2312 20.2325C8.36917 20.2948 10.0458 21.1685 10.4286 23.6472C10.7677 25.8426 10.2291 28.0778 8.17092 28.4286ZM33.9379 24.4535C33.9217 24.3958 33.8153 24.008 33.6694 23.5404C33.5235 23.0724 33.3726 22.7437 33.3726 22.7437C33.9578 21.868 33.9682 21.0845 33.8901 20.641C33.8069 20.0912 33.5779 19.6228 33.1166 19.1381C32.6553 18.6539 31.7114 18.1577 30.3851 17.7853L29.6894 17.592C29.686 17.5633 29.6528 15.9516 29.6229 15.2595C29.6008 14.7591 29.558 13.9782 29.3157 13.2093C29.0269 12.1681 28.524 11.2571 27.896 10.6744C29.6291 8.87807 30.711 6.89888 30.7081 5.20147C30.7031 1.93676 26.6936 0.948826 21.7522 2.99494L20.7053 3.43924C20.7007 3.43467 18.8125 1.58223 18.7843 1.5573C13.1505 -3.35661 -4.46359 16.2221 1.16768 20.9773L2.39834 22.0201C2.07915 22.8472 1.95362 23.7948 2.05628 24.8135C2.18762 26.1223 2.86259 27.3766 3.95693 28.3458C4.99557 29.266 6.3613 29.8487 7.68631 29.8475C9.87789 34.8977 14.8853 37.9958 20.7564 38.1703C27.0543 38.3574 32.341 35.4023 34.5563 30.094C34.7014 29.7216 35.3161 28.0429 35.3161 26.5608C35.3161 25.0716 34.474 24.4535 33.9379 24.4535Z" fill="black" fill-opacity="0.7"/>
</svg>
