<svg width="108" height="23" viewBox="0 0 108 23" fill="none" xmlns="http://www.w3.org/2000/svg">
<g clip-path="url(#clip0_1_2340)">
<path d="M37.5018 11.8046V21.4553C37.5019 21.5299 37.4874 21.6039 37.4588 21.6729C37.4304 21.7419 37.3886 21.8045 37.3358 21.8573C37.283 21.9101 37.2203 21.952 37.1514 21.9804C37.0823 22.0089 37.0084 22.0235 36.9337 22.0234H32.7639C32.6893 22.0234 32.6154 22.0087 32.5465 21.9802C32.4775 21.9516 32.4149 21.9098 32.3622 21.857C32.3094 21.8043 32.2675 21.7416 32.239 21.6727C32.2105 21.6037 32.1958 21.5299 32.1958 21.4553V6.21336C32.1958 6.13875 32.2105 6.06487 32.239 5.99595C32.2675 5.92702 32.3094 5.86439 32.3622 5.81164C32.4149 5.75889 32.4775 5.71704 32.5465 5.68849C32.6154 5.65995 32.6893 5.64525 32.7639 5.64525H36.9337C37.0084 5.64509 37.0823 5.65967 37.1514 5.68817C37.2203 5.71666 37.283 5.7585 37.3358 5.81129C37.3886 5.86407 37.4304 5.92676 37.4588 5.99576C37.4874 6.06476 37.5019 6.1387 37.5018 6.21336V7.41392C38.5506 6.09925 40.0207 5.28471 42.0843 5.28471C44.0157 5.28471 45.686 6.07012 46.6972 7.54502C47.9415 6.07012 49.7102 5.28471 51.8721 5.28471C55.5406 5.28471 58.0631 7.44669 58.0631 11.5728V21.4528C58.0632 21.5275 58.0487 21.6014 58.0201 21.6705C57.9917 21.7394 57.9498 21.8021 57.897 21.8549C57.8442 21.9077 57.7816 21.9496 57.7127 21.978C57.6436 22.0065 57.5697 22.0211 57.495 22.021H53.3325C53.1818 22.021 53.0373 21.9611 52.9308 21.8545C52.8242 21.7481 52.7644 21.6035 52.7644 21.4528V12.6872C52.7644 10.8857 51.7495 10.0008 50.3742 10.0008C49.227 10.0008 48.3105 10.7218 47.7861 11.8022V21.4528C47.7862 21.5275 47.7717 21.6014 47.7431 21.6705C47.7147 21.7394 47.6728 21.8021 47.62 21.8549C47.5672 21.9077 47.5046 21.9496 47.4356 21.978C47.3666 22.0065 47.2927 22.0211 47.218 22.021H43.0482C42.8976 22.021 42.753 21.9611 42.6465 21.8545C42.5399 21.7481 42.4801 21.6035 42.4801 21.4528V12.6872C42.4801 10.8857 41.4653 10.0008 40.0899 10.0008C38.91 10.0008 38.0262 10.7218 37.5018 11.8046ZM65.0431 22.3487C61.9646 22.3487 59.3766 20.3178 59.3766 17.1738C59.3766 14.292 61.2763 12.9482 64.8137 12.0317L69.3343 10.8529C69.2032 9.77134 68.351 9.24815 66.9757 9.24815C65.7618 9.24815 64.8805 9.71429 64.4762 10.6466C64.4251 10.7738 64.3303 10.8786 64.2088 10.9423C64.0873 11.0059 63.9472 11.0241 63.8134 10.9938L60.2299 10.144C60.1518 10.1254 60.0784 10.0904 60.0147 10.0415C59.951 9.99257 59.8983 9.93072 59.8602 9.86001C59.8221 9.7893 59.7992 9.71133 59.7933 9.6312C59.7874 9.55106 59.7984 9.47059 59.8257 9.39503C60.8539 6.61274 63.7102 5.15483 67.1687 5.15483C71.8192 5.15483 74.5056 7.34958 74.5056 11.2135V21.4541C74.5056 21.6047 74.4457 21.7493 74.3392 21.8557C74.2327 21.9623 74.0881 22.0222 73.9375 22.0222H69.9874C69.8391 22.0222 69.6965 21.9641 69.5903 21.8605C69.4842 21.7568 69.4228 21.6157 69.4193 21.4674L69.3999 20.6177L69.3671 20.6504C68.0233 21.7915 66.7135 22.3487 65.0431 22.3487ZM66.3857 18.2542C67.074 18.2542 67.5996 18.0587 68.3838 17.5999L69.3015 17.0427L69.3343 14.3903L66.9757 15.0446C65.3709 15.5034 64.6498 15.8943 64.6498 16.8133C64.6498 17.8293 65.5348 18.2542 66.3857 18.2542ZM82.9799 14.292L81.3751 15.7657V21.4528C81.3752 21.5275 81.3607 21.6014 81.3321 21.6705C81.3037 21.7394 81.2619 21.8021 81.2091 21.8549C81.1563 21.9077 81.0936 21.9496 81.0247 21.978C80.9556 22.0065 80.8817 22.0211 80.807 22.021H76.7355C76.5849 22.021 76.4403 21.9611 76.3339 21.8545C76.2273 21.7481 76.1674 21.6035 76.1674 21.4528V0.840573C76.1678 0.689999 76.2278 0.545684 76.3342 0.439212C76.4407 0.332739 76.585 0.272782 76.7355 0.272461H80.8082C80.9589 0.272461 81.1035 0.332315 81.2099 0.438857C81.3165 0.545399 81.3763 0.689901 81.3763 0.840573V10.1646L86.1264 5.79456C86.2322 5.69815 86.3704 5.64487 86.5136 5.64525H91.5404C91.655 5.64528 91.767 5.67998 91.8615 5.74477C91.956 5.80957 92.0288 5.90144 92.0701 6.00833C92.1115 6.11521 92.1195 6.2321 92.0933 6.34366C92.0669 6.45521 92.0076 6.5562 91.9228 6.63337L87.0417 11.0824L92.6038 21.1785C92.6515 21.265 92.6758 21.3625 92.6744 21.4612C92.6729 21.56 92.6457 21.6568 92.5955 21.7418C92.5452 21.8268 92.4737 21.8974 92.3879 21.9463C92.3021 21.9952 92.2049 22.021 92.1061 22.021H87.3537C87.2497 22.0208 87.1479 21.9922 87.0592 21.9383C86.9703 21.8844 86.898 21.8072 86.8499 21.715L82.9799 14.292Z" fill="#707A92"/>
<path d="M100.258 22.3815C95.7055 22.3815 91.5454 19.5325 91.5454 13.7628C91.5454 8.32568 95.5416 5.18164 99.9299 5.18164C104.483 5.18164 107.791 8.35846 107.922 13.3694C107.937 13.8987 107.945 14.2677 107.95 14.5299C107.951 14.6052 107.938 14.68 107.909 14.7498C107.881 14.8197 107.84 14.8832 107.787 14.9369C107.734 14.9904 107.671 15.0329 107.601 15.0618C107.532 15.0908 107.457 15.1056 107.382 15.1053H96.7859C96.9498 17.0707 98.5218 18.3149 100.52 18.3149C101.941 18.3149 103.107 17.7238 103.919 16.6555C104.006 16.5421 104.134 16.4664 104.275 16.4438C104.417 16.4213 104.561 16.4536 104.68 16.5341L107.328 18.3064C107.39 18.349 107.444 18.4034 107.485 18.4668C107.526 18.53 107.555 18.6008 107.569 18.6752C107.583 18.7495 107.582 18.8259 107.567 18.8999C107.551 18.974 107.521 19.0441 107.478 19.1064C106.066 21.1943 103.727 22.3815 100.258 22.3815ZM96.8842 11.9007H102.616C102.584 10.0337 101.208 9.21548 99.7673 9.21548C98.4234 9.21548 97.0481 10.0009 96.8842 11.9007Z" fill="#707A92"/>
<path d="M23.8622 21.9735H19.7483C19.5976 21.9735 19.4531 21.9136 19.3466 21.807C19.24 21.7004 19.1802 21.556 19.1802 21.4053V6.22047C19.1811 6.07031 19.2414 5.92662 19.3478 5.82067C19.4542 5.71472 19.5981 5.6551 19.7483 5.65479H23.861C24.0114 5.65446 24.1559 5.71383 24.2627 5.81989C24.3694 5.92594 24.4297 6.07001 24.4304 6.22047V21.4053C24.4305 21.48 24.4159 21.5539 24.3874 21.6229C24.359 21.6919 24.3171 21.7546 24.2643 21.8074C24.2115 21.8602 24.1488 21.9021 24.0799 21.9305C24.0108 21.959 23.9369 21.9736 23.8622 21.9735Z" fill="#707A92"/>
<path d="M4.79546 22.0305L1.12095 20.1805C0.986422 20.1129 0.884263 19.9945 0.836918 19.8515C0.789572 19.7086 0.800915 19.5528 0.868454 19.4182L7.68579 5.8563C7.75346 5.72177 7.87177 5.61961 8.0147 5.57227C8.15765 5.52493 8.31355 5.53626 8.44813 5.60381L12.1239 7.45017C12.2584 7.51783 12.3606 7.63613 12.4079 7.77908C12.4553 7.92202 12.4439 8.07792 12.3764 8.21251L5.5578 21.778C5.49015 21.9125 5.37184 22.0147 5.22889 22.0621C5.08595 22.1094 4.93005 22.098 4.79546 22.0305Z" fill="#707A92"/>
<path d="M15.6489 21.7245L18.5623 6.93785C18.5913 6.79062 18.5608 6.63788 18.4775 6.51302C18.3943 6.38816 18.265 6.3013 18.118 6.27141L14.0866 5.45688C14.0132 5.4422 13.9377 5.4421 13.8644 5.45661C13.791 5.47112 13.7212 5.49994 13.659 5.54142C13.5967 5.58291 13.5433 5.63625 13.5017 5.69839C13.4601 5.76053 13.4312 5.83027 13.4165 5.9036L10.5031 20.6915C10.4741 20.8389 10.5048 20.9918 10.5883 21.1167C10.6717 21.2416 10.8013 21.3284 10.9486 21.3579L14.9788 22.1712C15.0521 22.1863 15.1277 22.1866 15.2012 22.1723C15.2747 22.1579 15.3447 22.1291 15.4069 22.0876C15.4692 22.0461 15.5227 21.9925 15.5643 21.9303C15.6058 21.868 15.6345 21.7981 15.6489 21.7245Z" fill="#707A92"/>
</g>
<defs>
<clipPath id="clip0_1_2340">
<rect width="107.31" height="22.2146" fill="white" transform="translate(0.689941 0.272461)"/>
</clipPath>
</defs>
</svg>
