<svg width="107" height="41" viewBox="0 0 107 41" fill="none" xmlns="http://www.w3.org/2000/svg">
<path d="M37.468 29.5037V17.4048H37.6835L46.4903 29.5037H49.2617V11.7363H46.1824V23.8047H45.9669L37.16 11.7363H34.3887V29.5037H37.468ZM57.9761 29.778C62.0408 29.778 64.5351 27.1571 64.5351 22.7686C64.5351 18.4105 62.0408 15.7591 57.9761 15.7591C53.9423 15.7591 51.4172 18.4105 51.4172 22.7686C51.448 27.1571 53.9115 29.778 57.9761 29.778ZM57.9761 27.218C55.8206 27.218 54.5889 25.6028 54.5889 22.7686C54.5889 19.9648 55.8206 18.3191 57.9761 18.3191C60.1317 18.3191 61.3634 19.9648 61.3634 22.7686C61.3634 25.6028 60.1317 27.218 57.9761 27.218ZM67.3372 12.742V16.1248H65.1817V18.5629H67.3372V25.9076C67.3372 28.5285 68.569 29.5647 71.7099 29.5647C72.2949 29.5647 72.88 29.5037 73.3419 29.4123V27.0352C72.9724 27.0657 72.726 27.0961 72.2949 27.0961C71.0016 27.0961 70.4165 26.5171 70.4165 25.1762V18.5629H73.3419V16.1248H70.4165V12.742H67.3372ZM75.1895 29.5037H78.2688V16.0334H75.1895V29.5037ZM76.7291 13.8087C77.7453 13.8087 78.5767 12.9858 78.5767 11.9801C78.5767 10.944 77.7453 10.1211 76.7291 10.1211C75.713 10.1211 74.8815 10.944 74.8815 11.9801C74.8815 12.9858 75.713 13.8087 76.7291 13.8087ZM86.7061 29.778C90.7708 29.778 93.265 27.1571 93.265 22.7686C93.265 18.4105 90.7708 15.7591 86.7061 15.7591C82.6722 15.7591 80.1472 18.4105 80.1472 22.7686C80.1472 27.1571 82.6106 29.778 86.7061 29.778ZM86.7061 27.218C84.5506 27.218 83.3188 25.6028 83.3188 22.7686C83.3188 19.9648 84.5506 18.3191 86.7061 18.3191C88.8308 18.3191 90.0933 19.9648 90.0933 22.7686C90.0625 25.6028 88.8308 27.218 86.7061 27.218ZM95.0818 29.5037H98.1611V21.6714C98.1611 19.6905 99.3312 18.441 101.148 18.441C103.026 18.441 103.889 19.4772 103.889 21.5191V29.5037H106.968V20.7876C106.968 17.5572 105.305 15.7591 102.287 15.7591C100.255 15.7591 98.9001 16.6734 98.2535 18.1972H98.0379V16.0334H95.051C95.0818 16.0334 95.0818 29.5037 95.0818 29.5037Z" fill="black" fill-opacity="0.7"/>
<path fill-rule="evenodd" clip-rule="evenodd" d="M4.86338 10.5991C5.75962 11.3222 6.08379 11.2651 7.76185 11.1509L23.5699 10.1996C23.9132 10.1996 23.6271 9.85709 23.5127 9.81904L20.8812 7.93538C20.3854 7.55485 19.699 7.0982 18.4213 7.21236L3.12811 8.33495C2.57512 8.39203 2.4607 8.67743 2.68953 8.88673L4.86338 10.5991ZM5.81682 14.2713V30.8627C5.81682 31.757 6.25541 32.0805 7.26606 32.0234L24.6378 31.015C25.6484 30.9579 25.7628 30.349 25.7628 29.626V13.1487C25.7628 12.4257 25.4768 12.0262 24.8666 12.0832L6.71306 13.1487C6.04565 13.2058 5.81682 13.5483 5.81682 14.2713ZM22.9597 15.1656C23.0741 15.6603 22.9597 16.174 22.4639 16.2311L21.6249 16.4023V28.6556C20.9003 29.0362 20.2329 29.2645 19.6608 29.2645C18.7646 29.2645 18.5357 28.9791 17.8683 28.1419L12.3956 19.5608V27.8565L14.1308 28.237C14.1308 28.237 14.1308 29.2455 12.7388 29.2455L8.88691 29.4738C8.7725 29.2455 8.88691 28.6937 9.26829 28.5795L10.2789 28.2941V17.3346L8.88691 17.2205C8.7725 16.7258 9.05853 16.0028 9.84035 15.9457L13.9783 15.6603L19.6799 24.3365V16.6687L18.2306 16.4975C18.1162 15.8886 18.5739 15.432 19.1269 15.3749L22.9597 15.1656ZM1.8505 6.8128L17.773 5.65216C19.718 5.48092 20.2329 5.59508 21.4533 6.48934L26.5256 10.0474C27.3646 10.6562 27.6507 10.8275 27.6507 11.4934V31.034C27.6507 32.2517 27.2121 32.9747 25.6484 33.0889L7.17071 34.2115C5.98844 34.2685 5.43545 34.0973 4.82524 33.3172L1.06868 28.4654C0.401267 27.5711 0.115234 26.9052 0.115234 26.1251V8.75354C0.115234 7.74511 0.572887 6.92696 1.8505 6.8128Z" fill="black" fill-opacity="0.7"/>
</svg>
