<svg width="62" height="23" viewBox="0 0 62 23" fill="none" xmlns="http://www.w3.org/2000/svg">
<g clip-path="url(#clip0_1_2333)">
<path d="M42.209 16.7297C41.7205 17.4311 41.0202 17.9578 40.2107 18.2324C39.4012 18.5071 38.5251 18.5153 37.7105 18.256C36.896 17.9966 36.186 17.4833 35.6843 16.7911C35.1827 16.099 34.9158 15.2644 34.9228 14.4097C34.9298 13.5549 35.2103 12.7248 35.7233 12.041C36.2362 11.3572 36.9546 10.8556 37.7733 10.6096C38.5919 10.3637 39.4678 10.3863 40.2727 10.6742C41.0775 10.962 41.7691 11.5001 42.246 12.2095L45.2036 10.4633C44.3424 9.10465 43.0637 8.06209 41.5595 7.49215C40.0553 6.92221 38.4068 6.85566 36.8615 7.3025C35.3162 7.74933 33.9576 8.68543 32.9898 9.97022C32.0219 11.255 31.4969 12.8191 31.4937 14.4277C31.4906 16.0363 32.0093 17.6024 32.9721 18.891C33.935 20.1796 35.2898 21.1211 36.8333 21.574C38.3768 22.027 40.0256 21.9669 41.532 21.4029C43.0385 20.8389 44.3213 19.8014 45.1879 18.4462L42.2099 16.7297H42.209ZM50.3578 0.721191H46.9266V21.3027H50.3559V14.4422C50.3559 13.3808 50.7776 12.3628 51.5281 11.6123C52.2787 10.8618 53.2966 10.4401 54.3581 10.4401C55.4195 10.4401 56.4375 10.8618 57.188 11.6123C57.9386 12.3628 58.3602 13.3808 58.3602 14.4422V21.3027H61.7905V13.7749C61.79 12.4508 61.401 11.156 60.6717 10.0508C59.9424 8.9457 58.9049 8.07883 57.6877 7.55765C56.4705 7.03648 55.1271 6.8839 53.824 7.11883C52.5209 7.35375 51.3154 7.96586 50.3569 8.8793V0.721191H50.3578ZM26.3469 0.721191H22.9167V16.7288C22.9165 17.7167 23.2008 18.6837 23.7356 19.5144C24.2703 20.3451 25.033 21.0042 25.9323 21.4131C26.8316 21.822 27.8297 21.9632 28.8072 21.8201C29.7847 21.6769 30.7003 21.2554 31.4446 20.6058L29.7874 17.7937C29.627 17.9965 29.4227 18.1602 29.19 18.2728C28.9572 18.3853 28.702 18.4436 28.4434 18.4434H28.0616C27.6069 18.4432 27.1709 18.2624 26.8494 17.9409C26.5279 17.6194 26.3472 17.1834 26.3469 16.7288V11.012H29.7762V7.58171H26.3469V0.721191ZM18.9173 0.721191C18.4119 0.721191 17.9272 0.921959 17.5699 1.27933C17.2125 1.6367 17.0117 2.12139 17.0117 2.62679C17.0117 3.13218 17.2125 3.61688 17.5699 3.97425C17.9272 4.33162 18.4119 4.53238 18.9173 4.53238C19.4227 4.53238 19.9074 4.33162 20.2648 3.97425C20.6221 3.61688 20.8229 3.13218 20.8229 2.62679C20.8229 2.12139 20.6221 1.6367 20.2648 1.27933C19.9074 0.921959 19.4227 0.721191 18.9173 0.721191V0.721191ZM20.632 21.3027V7.58171H17.2026V21.3027H20.632Z" fill="#707A92"/>
<path fill-rule="evenodd" clip-rule="evenodd" d="M0.621582 21.3027H4.05091V17.3006H7.1957C8.28433 17.3006 9.36229 17.0862 10.368 16.6696C11.3738 16.253 12.2876 15.6424 13.0574 14.8726C13.8272 14.1028 14.4378 13.189 14.8544 12.1832C15.271 11.1775 15.4854 10.0995 15.4854 9.01091C15.4854 7.92229 15.271 6.84432 14.8544 5.83857C14.4378 4.83282 13.8272 3.91896 13.0574 3.14919C12.2876 2.37942 11.3738 1.76881 10.368 1.35221C9.36229 0.935611 8.28433 0.721191 7.1957 0.721191L0.621582 0.721191V21.3027ZM4.05091 4.15052H7.1957C8.48451 4.15052 9.72053 4.6625 10.6319 5.57383C11.5432 6.48515 12.0552 7.72117 12.0552 9.00998C12.0552 10.2988 11.5432 11.5348 10.6319 12.4461C9.72053 13.3575 8.48451 13.8694 7.1957 13.8694H4.05184V4.15052H4.05091Z" fill="#707A92"/>
</g>
<defs>
<clipPath id="clip0_1_2333">
<rect width="61.1719" height="21.3175" fill="white" transform="translate(0.621338 0.721191)"/>
</clipPath>
</defs>
</svg>
