<svg width="56" height="52" viewBox="0 0 56 52" fill="none" xmlns="http://www.w3.org/2000/svg">
<path d="M30.4542 25.4618C30.26 25.8623 30.2754 26.3335 30.4943 26.7214L33.6045 32.0507C33.8677 32.5025 33.842 33.0662 33.5391 33.4932C33.2482 33.9276 32.7333 34.1547 32.2163 34.0804L26.1044 33.2737C25.8911 33.2437 25.6743 33.265 25.4692 33.3331L25.155 33.4477C25.0519 33.5036 24.9579 33.5773 24.88 33.6661L20.7241 38.2297C20.5167 38.4498 20.2456 38.5999 19.9473 38.6573C19.2135 38.7777 18.5171 38.2906 18.3782 37.5597L17.3308 31.4786C17.2475 31.0374 16.9552 30.6644 16.5471 30.4782L10.8808 27.9459C10.4068 27.7338 10.099 27.268 10.0913 26.7493C10.0793 26.2335 10.3537 25.7539 10.8051 25.504L16.2634 22.5674C16.6852 22.3624 16.9729 21.9554 17.0264 21.4893L17.6681 15.3574C17.6862 15.2195 17.725 15.0845 17.7859 14.9598L17.8607 14.8406C17.8932 14.7604 17.9377 14.6877 17.9925 14.6218L18.1019 14.5294L18.2695 14.3763L18.7577 14.1984C19.2101 14.0847 19.689 14.2057 20.0316 14.5222L24.4939 18.7676C24.8176 19.0791 25.2741 19.2109 25.7137 19.1229L31.7813 17.8585C32.2937 17.7505 32.8233 17.9385 33.1535 18.3435C33.4749 18.7531 33.5298 19.3111 33.2948 19.7764L30.4542 25.4618Z" fill="url(#paint0_linear_188_925)"/>
<g opacity="0.5" filter="url(#filter0_f_188_925)">
<path d="M25.1098 22.3784C22.456 22.3784 20.3022 24.5327 20.3022 27.1859C20.3022 29.8402 22.456 31.9934 25.1098 31.9934C27.7683 31.9934 29.9173 29.8402 29.9173 27.1859C29.9173 24.5327 27.7683 22.3784 25.1098 22.3784Z" fill="#52E052"/>
</g>
<g filter="url(#filter1_b_188_925)">
<path d="M44.6058 24.5664C44.1162 24.849 43.7967 25.3554 43.7504 25.9191L43.2224 33.738C43.1772 34.4005 42.7484 34.9748 42.1258 35.2079C41.5104 35.4573 40.8073 35.3291 40.3166 34.8826L34.4662 29.6791C34.2634 29.4956 34.0202 29.3634 33.7561 29.289L33.3441 29.1855C33.1959 29.1709 33.0446 29.1813 32.8993 29.2192L25.2783 31.0553C24.9034 31.1389 24.5115 31.1034 24.157 30.9513C23.2998 30.5549 22.9148 29.5466 23.2895 28.6792L26.5219 21.5399C26.7487 21.0167 26.7072 20.4163 26.4109 19.9298L22.2585 13.2298C21.9113 12.669 21.9198 11.96 22.2812 11.4092C22.6362 10.8584 23.2665 10.5497 23.9191 10.6087L31.7498 11.4111C32.3394 11.4962 32.9319 11.2734 33.3202 10.8215L38.3645 4.83242C38.4818 4.70027 38.6188 4.58601 38.7717 4.49837L38.9353 4.42634C39.0266 4.36524 39.1251 4.3205 39.2297 4.29022L39.4106 4.27105L39.6958 4.22957L40.3358 4.39039C40.8925 4.5933 41.3097 5.06178 41.4444 5.63864L43.1102 13.2815C43.2285 13.8397 43.6145 14.3036 44.1393 14.5243L51.4192 17.5188C52.0347 17.7705 52.4575 18.3454 52.516 19.0066C52.562 19.6662 52.2221 20.2919 51.6435 20.6136L44.6058 24.5664Z" fill="#52E052" fill-opacity="0.4"/>
</g>
<defs>
<filter id="filter0_f_188_925" x="0.302246" y="2.37842" width="49.6152" height="49.6152" filterUnits="userSpaceOnUse" color-interpolation-filters="sRGB">
<feFlood flood-opacity="0" result="BackgroundImageFix"/>
<feBlend mode="normal" in="SourceGraphic" in2="BackgroundImageFix" result="shape"/>
<feGaussianBlur stdDeviation="10" result="effect1_foregroundBlur_188_925"/>
</filter>
<filter id="filter1_b_188_925" x="-1.99609" y="-19.7705" width="78.5161" height="79.104" filterUnits="userSpaceOnUse" color-interpolation-filters="sRGB">
<feFlood flood-opacity="0" result="BackgroundImageFix"/>
<feGaussianBlur in="BackgroundImageFix" stdDeviation="12"/>
<feComposite in2="SourceAlpha" operator="in" result="effect1_backgroundBlur_188_925"/>
<feBlend mode="normal" in="SourceGraphic" in2="effect1_backgroundBlur_188_925" result="shape"/>
</filter>
<linearGradient id="paint0_linear_188_925" x1="11.688" y1="23.5951" x2="37.1549" y2="47.4562" gradientUnits="userSpaceOnUse">
<stop stop-color="#52E052"/>
<stop offset="1" stop-color="#247A24"/>
</linearGradient>
</defs>
</svg>
