<svg width="96" height="25" viewBox="0 0 96 25" fill="none" xmlns="http://www.w3.org/2000/svg">
<path d="M91.0334 6.43662C90.8506 7.56606 91.3936 8.58812 92.2291 9.02604C91.645 12.144 89.2985 17.1309 87.9779 17.1309C86.6573 17.1309 87.6733 12.5042 89.1127 7.00172C89.4173 5.82354 86.3192 6.08781 85.7084 7.13272C84.6604 12.7198 82.3475 16.9976 80.9103 16.9976C80.3422 16.9976 80.2554 16.2992 80.2554 15.6877C80.2554 13.2003 81.6087 8.22408 81.7831 7.17613C81.959 6.14722 80.5288 6.37265 79.592 6.83037C79.3003 6.98649 77.1176 8.07785 76.0559 8.58203C75.4086 6.18758 72.7202 6.49983 72.1802 8.31319C71.788 9.62084 72.7659 10.4632 73.7582 10.6391C73.7064 13.5392 71.9966 17.2177 70.0409 17.2177C67.5969 17.2177 68.7317 9.40455 71.8748 7.48381C71.6996 6.48003 70.3904 6.34904 69.1681 6.87454C66.8262 7.87451 65.3708 11.6429 65.5787 14.773C64.6648 16.1942 63.7509 17.0883 63.1881 17.0883C62.9261 17.0883 62.6207 16.827 62.6207 16.1743C62.6207 14.3412 63.5346 9.23395 64.0608 5.82963C64.4104 3.38492 63.974 0.416992 60.6565 0.416992C58.3314 0.416992 57.0344 2.63856 56.0923 6.09162H54.6765C54.0672 6.09162 53.7161 7.66355 54.3719 7.70696C54.5836 7.726 55.0916 7.72828 55.6909 7.72524C55.5188 8.49216 55.3574 9.30402 55.2012 10.1517C55.1195 10.5863 55.0408 11.0349 54.9651 11.4974C53.7771 13.9825 50.9988 17.3975 48.5228 17.3975C47.3751 17.3975 46.9753 16.0091 47.0453 14.2909C53.7763 14.5902 55.844 6.13655 49.832 6.1792C46.2525 6.20281 44.0378 9.97955 43.772 13.4775C42.6997 15.2589 40.9153 17.4378 39.2687 17.4378C35.7768 17.4378 38.1339 7.87832 40.4873 7.87832C41.491 7.87832 41.2732 9.49366 40.6617 10.585C40.8802 11.9818 43.1064 12.1128 43.6319 9.75564C44.0241 7.9659 42.9335 6.21957 40.6198 6.21957C36.773 6.21957 34.3557 10.5089 34.3336 14.1775C33.5956 15.7867 32.636 16.6519 31.9338 16.6519C31.3664 16.6519 31.2788 15.9977 31.9772 12.1585C32.1516 11.1981 32.326 10.1067 32.5012 8.97196C32.7601 7.32997 32.0778 6.37341 30.6673 6.35361C30.6673 6.35361 30.5043 6.35361 30.4472 6.3597C29.4624 6.41454 28.1464 6.83646 26.7542 7.80673C25.9165 5.84486 23.5342 6.23404 23.0293 7.9659C22.637 9.33677 23.6149 10.1966 24.6073 10.3771C24.5509 13.3679 22.8427 17.1758 20.89 17.1758C18.446 17.1758 19.5808 9.10296 22.7231 7.13653C22.5487 6.08857 21.2395 5.95758 20.0172 6.48156C15.7835 8.2713 14.4735 19.3144 20.4101 19.3144C25.1176 19.3144 26.9515 12.6375 27.0421 9.6871C27.8037 9.12048 28.6498 8.67494 29.1228 8.66352H29.1403C29.3581 8.66352 29.4449 8.7511 29.4015 9.01233C29.1388 11.0199 28.4434 14.4242 28.4434 16.2574C28.4434 18.1347 28.9674 19.3129 30.5827 19.3129C32.0998 19.3129 33.5964 17.9679 34.6192 16.2665C35.1523 18.0288 36.4615 19.3129 38.7021 19.3129C40.9221 19.3129 42.6921 17.5346 43.9083 15.8095C44.331 17.8049 45.5838 19.3129 47.8252 19.3129C50.9287 19.3129 53.2051 16.8339 54.5181 14.524C54.4374 15.1333 54.3597 15.7585 54.285 16.3884C53.8486 19.9244 53.4998 21.3646 52.9317 22.6334C52.6986 23.1569 52.4364 23.6669 52.1465 24.1612C51.9279 24.5542 52.1899 24.7286 52.5395 24.7286C53.3247 24.7286 54.5904 24.2488 55.3764 22.9388C56.1182 21.7203 56.8607 20.4949 57.6459 13.4669C57.8196 11.9582 58.0549 9.78154 58.3938 7.70544H59.2613C60.0473 7.70544 60.789 6.22109 59.8706 6.13427C59.7091 6.11904 59.2651 6.1099 58.681 6.10304C59.1768 3.63244 59.8523 1.63783 60.7875 1.63783C61.6603 1.63783 61.8347 2.99118 61.4425 5.1739C60.7875 8.57822 60.1767 12.8561 59.9147 15.3031C59.6101 18.1834 60.5689 19.3182 62.1843 19.3182C63.4569 19.3182 64.8658 18.153 65.9435 16.6526C66.4911 18.2131 67.6472 19.3182 69.5611 19.3182C73.8808 19.3182 75.781 13.866 76.1344 10.7594C76.7639 10.5503 77.3797 10.3021 77.9782 10.0161C77.5631 12.1699 77.2433 14.5423 77.2433 15.9139C77.2433 17.9214 78.247 19.2748 79.7748 19.2748C82.0253 19.2748 83.5683 17.1545 84.4967 15.3907C84.4906 17.7143 85.3816 19.319 87.4996 19.319C92.0829 19.319 95.3128 10.0222 95.3128 7.05351C95.3113 3.81827 91.4272 3.9485 91.0334 6.43662ZM49.9158 7.83338C51.7505 7.83338 50.3979 12.5751 47.1893 12.8827C47.596 10.4068 48.7384 7.83338 49.9158 7.83338Z" fill="#707A92"/>
<path fill-rule="evenodd" clip-rule="evenodd" d="M31.4952 4.86536C34.0709 4.86536 34.6383 0.413086 31.9324 0.413086C29.4001 0.413086 28.8769 4.86536 31.4952 4.86536Z" fill="#707A92"/>
<path fill-rule="evenodd" clip-rule="evenodd" d="M11.7645 0.718738C12.5939 1.19854 13.8155 2.9007 13.3357 6.56777C12.5497 12.4168 9.40739 17.2179 8.35944 17.2179C7.75017 17.2179 7.79206 16.304 8.57802 12.8966C9.62521 8.44434 11.0661 2.1155 5.39151 2.1155C-0.631923 2.1155 -1.37448 8.57533 2.51041 9.36129C1.94302 6.34919 3.73277 3.51226 5.43493 3.51226C7.26808 3.51226 6.48288 7.04757 5.73956 10.8456C4.86678 15.2537 3.863 20.2734 7.3549 20.2734C12.2002 20.2734 15.8231 11.3254 16.478 6.56473C17.3097 0.543572 13.6426 -1.07101 11.7645 0.718738Z" fill="#707A92"/>
</svg>
